<?xml version="1.0" encoding="iso-8859-1"?>
<!-- Generator: Adobe Illustrator 19.0.0, SVG Export Plug-In . SVG Version: 6.00 Build 0)  -->
<svg version="1.1" id="Capa_1" xmlns="http://www.w3.org/2000/svg" xmlns:xlink="http://www.w3.org/1999/xlink" x="0px" y="0px"
	 viewBox="0 0 512 512" style="enable-background:new 0 0 512 512;" xml:space="preserve">
<path style="fill:#5C4346;" d="M290.898,412.43L290.898,412.43c-4.137,0-8.087-3.047-8.848-6.941l-56.307-297.737
	c-4.903-25.089,0.082-37.8,11.612-37.8l0,0c11.53,0,23.494,12.711,26.436,37.8l33.784,297.737
	C298.032,409.383,295.036,412.43,290.898,412.43z"/>
<path style="fill:#735458;" d="M305.881,412.43L305.881,412.43c-4.137,0-7.848-3.047-8.305-6.941l-33.784-297.737
	c-2.942-25.089,3.788-37.8,15.318-37.8l0,0c11.53,0,21.749,12.711,22.73,37.8l11.26,297.736
	C313.253,409.383,310.018,412.43,305.881,412.43z"/>
<path style="fill:#5C4346;" d="M320.863,412.43L320.863,412.43c-4.137,0-7.61-3.047-7.762-6.941L301.84,107.752
	c-0.981-25.089,7.494-37.8,19.024-37.8l0,0c11.53,0,20.004,12.711,19.024,37.8l-11.261,297.737
	C328.473,409.383,325,412.43,320.863,412.43z"/>
<path style="fill:#735458;" d="M335.845,412.43L335.845,412.43c-4.137,0-7.372-3.047-7.22-6.941l11.262-297.737
	c0.981-25.089,11.2-37.8,22.73-37.8l0,0c11.53,0,18.26,12.711,15.318,37.8L344.15,405.488
	C343.693,409.383,339.982,412.43,335.845,412.43z"/>
<path style="fill:#5C4346;" d="M350.827,412.43L350.827,412.43c-4.137,0-7.134-3.047-6.677-6.941l33.784-297.737
	c2.942-25.089,14.906-37.8,26.436-37.8l0,0c11.53,0,16.515,12.711,11.612,37.8l-56.307,297.737
	C358.914,409.383,354.964,412.43,350.827,412.43z"/>
<path style="fill:#FF803C;" d="M504.44,69.06l-62.22,369.62c-0.37,2.18-2.43,3.64-4.6,3.28l-28.86-4.83l-52.02-8.7
	c-2.18-0.36-3.65-2.42-3.28-4.6L415.69,54.2c0.36-2.17,2.42-3.64,4.6-3.27l50.79,8.5l30.08,5.03
	C503.34,64.82,504.81,66.88,504.44,69.06z"/>
<path style="fill:#F76328;" d="M504.44,69.06l-62.22,369.62c-0.37,2.18-2.43,3.64-4.6,3.28l-28.86-4.83
	c1.71-0.21,3.16-1.5,3.46-3.28l62.22-369.63c0.37-2.17-1.1-4.23-3.28-4.6l-0.08-0.19l30.08,5.03
	C503.34,64.82,504.81,66.88,504.44,69.06z"/>
<g>
	<circle style="fill:#FFDEA9;" cx="421.02" cy="308.83" r="15"/>
	<circle style="fill:#FFDEA9;" cx="431.99" cy="246.44" r="15"/>
	<circle style="fill:#FFDEA9;" cx="442.96" cy="184.06" r="15"/>
</g>
<path style="fill:#F76328;" d="M162.126,450.1l-58.95,11.387c-15.16,2.928-29.827-6.966-32.77-22.105L8.018,118.445
	c-2.946-15.155,6.973-29.824,22.148-32.756L89.075,74.31L162.126,450.1z"/>
<polygon style="fill:#FFDEA9;" points="105.625,159.45 19.233,176.138 13.526,146.779 99.918,130.092 "/>
<polygon style="fill:#595959;" points="111.333,188.809 24.94,205.496 19.233,176.138 105.625,159.45 "/>
<polygon style="fill:#FFDEA9;" points="117.04,218.167 30.647,234.855 24.94,205.496 111.333,188.809 "/>
<polygon style="fill:#595959;" points="122.747,247.526 36.354,264.214 30.647,234.855 117.04,218.167 "/>
<polygon style="fill:#FFDEA9;" points="128.454,276.884 42.061,293.572 36.354,264.214 122.747,247.526 "/>
<polygon style="fill:#595959;" points="134.161,306.243 47.768,322.931 42.061,293.572 128.454,276.884 "/>
<polygon style="fill:#FFDEA9;" points="139.868,335.602 53.476,352.289 47.768,322.931 134.161,306.243 "/>
<polygon style="fill:#595959;" points="145.575,364.96 59.183,381.648 53.476,352.289 139.868,335.602 "/>
<polygon style="fill:#FFDEA9;" points="151.282,394.319 64.89,411.006 59.183,381.648 145.575,364.96 "/>
<path style="fill:#FF803C;" d="M287.596,425.864L162.126,450.1L89.075,74.311l125.476-24.237c2.166-0.418,4.261,0.995,4.681,3.158
	l71.527,367.953C291.181,423.349,289.764,425.445,287.596,425.864z"/>
<path style="fill:#F76328;" d="M290.76,421.184L219.233,53.231c-0.42-2.163-2.516-3.576-4.681-3.158l-25.497,4.925l72.999,375.799
	l25.543-4.934C289.764,425.445,291.181,423.349,290.76,421.184z"/>
<polygon style="fill:#FFDEA9;" points="124.255,98.07 194.74,84.454 256.342,401.346 185.856,414.961 "/>
<path d="M509.865,61.727c-1.783-2.502-4.435-4.16-7.467-4.667l-80.876-13.53c-6.246-1.04-12.18,3.185-13.232,9.427l-1.621,9.626
	c-0.754-0.08-1.518-0.133-2.3-0.133c-8.346,0-16.303,4.422-22.408,12.452c-0.022,0.03-0.043,0.061-0.066,0.091
	c-1.054-2.094-2.293-3.97-3.741-5.597c-4.042-4.543-9.415-6.945-15.539-6.945c-7.304,0-15.428,3.655-21.427,12.61
	c-1.214-2.092-2.589-3.966-4.144-5.583c-4.421-4.597-10.016-7.027-16.181-7.027s-11.76,2.43-16.18,7.027
	c-1.555,1.617-2.93,3.491-4.144,5.583c-5.999-8.954-14.124-12.609-21.428-12.609c-6.124,0-11.497,2.401-15.539,6.945
	c-1.446,1.625-2.684,3.499-3.738,5.59c-0.021-0.028-0.042-0.059-0.063-0.087c-6.107-8.028-14.065-12.449-22.409-12.449
	c-1.977,0-5.106,0.297-8.352,1.766l-2.413-12.414c-1.206-6.214-7.234-10.292-13.467-9.093L72.283,69.916l0,0
	c-4.066,0.786-6.726,4.719-5.941,8.786c0.786,4.067,4.718,6.728,8.787,5.941l8.018-1.549l7.981,41.057l-71.664,13.843l-4.078-20.98
	c-1.041-5.356,0.068-10.798,3.124-15.322c3.061-4.533,7.708-7.601,13.084-8.64l11.536-2.228c4.066-0.786,6.726-4.719,5.941-8.786
	c-0.786-4.067-4.726-6.727-8.786-5.941L28.75,78.325c-9.313,1.799-17.365,7.116-22.671,14.972c-5.3,7.847-7.224,17.286-5.418,26.579
	l62.387,320.938c3.287,16.907,18.176,28.687,34.811,28.686c2.224,0,4.481-0.211,6.744-0.648l132.461-25.587l0,0
	c4.066-0.786,6.726-4.719,5.941-8.786c-0.786-4.065-4.708-6.727-8.787-5.941l-66.156,12.779L97.874,80.25l0,0l0,0l0,0l0,0l0,0
	L212.541,58.1l0,0c0.019,0.119-0.025-0.117,0,0l70.186,361.067l-16.51,3.189c-4.066,0.786-6.726,4.719-5.941,8.786
	c0.786,4.067,4.715,6.725,8.787,5.941l19.957-3.855c3.018-0.583,5.627-2.307,7.347-4.854c1.719-2.545,2.343-5.606,1.757-8.621
	l-0.295-1.517c0.156-0.081,0.316-0.153,0.469-0.24c2.278,1.223,4.867,1.934,7.585,1.934c2.64,0,5.204-0.682,7.433-1.921
	c2.227,1.217,4.797,1.921,7.548,1.921s5.321-0.704,7.548-1.921c2.23,1.239,4.794,1.921,7.434,1.921c2.717,0,5.307-0.711,7.584-1.935
	c0.993,0.568,2.065,1.007,3.184,1.329l-0.549,3.262c-0.51,3.028,0.19,6.073,1.973,8.574c1.783,2.502,4.434,4.16,7.467,4.667
	l80.875,13.53c0.639,0.106,1.274,0.158,1.901,0.158c5.507,0,10.388-3.981,11.332-9.586l3.993-23.723
	c0.688-4.085-2.065-7.954-6.15-8.641c-4.087-0.683-7.953,2.067-8.64,6.151l-3.412,20.269l-73.963-12.374L422.5,58.903l73.963,12.373
	l-52.262,310.442c-0.688,4.085,2.065,7.954,6.15,8.641c4.09,0.686,7.954-2.066,8.641-6.151l52.846-313.906
	C512.348,67.273,511.647,64.228,509.865,61.727z M59.413,343.506l-2.845-14.634l71.664-13.843l2.845,14.634L59.413,343.506z
	 M53.706,314.147l-2.845-14.634l71.664-13.843l2.845,14.634L53.706,314.147z M119.663,270.945l-71.664,13.843l-2.845-14.634
	l71.664-13.843L119.663,270.945z M113.956,241.587L42.292,255.43l-2.845-14.634l71.664-13.843L113.956,241.587z M133.939,344.388
	l2.845,14.634L65.12,372.864l-2.845-14.634L133.939,344.388z M108.249,212.228l-71.664,13.843l-2.845-14.634l71.663-13.843
	L108.249,212.228z M102.541,182.869l-71.663,13.843l-2.845-14.634l71.663-13.843L102.541,182.869L102.541,182.869z M67.982,387.589
	l71.664-13.843l2.845,14.634l0,0l-71.664,13.843L67.982,387.589z M93.989,138.877l2.845,14.634l-71.663,13.843l-2.845-14.634
	L93.989,138.877z M101.757,454.124c-11.076,2.136-21.836-5.115-23.985-16.172l-4.083-21.004l71.664-13.843l7.981,41.057
	L101.757,454.124z M404.165,77.459l-46.768,277.802l27.985-246.636c0.009-0.075,0.014-0.146,0.023-0.22
	C387.83,88.265,396.622,77.647,404.165,77.459z M362.616,77.451c1.817,0,3.154,0.59,4.332,1.915
	c3.722,4.184,5.047,14.389,3.555,27.343c-0.008,0.066-0.018,0.13-0.026,0.196l-33.765,297.62c-0.081,0.114-0.295,0.278-0.558,0.358
	l11.227-296.839C348.202,87.025,355.854,77.451,362.616,77.451z M237.362,77.45c3.549,0,7.266,2.319,10.467,6.526
	c3.035,3.997,6.976,11.517,8.511,24.62l4.512,39.758l21.714,191.368L232.458,81.957C233.86,77.465,236.021,77.45,237.362,77.45z
	 M305.02,404.53l-28.629-252.267l-5.15-45.385c-1.526-13.022-0.204-23.307,3.537-27.512c1.178-1.325,2.515-1.915,4.332-1.915
	c6.762,0,14.414,9.574,15.234,30.584l11.228,296.848C305.313,404.804,305.104,404.643,305.02,404.53z M320.584,404.881
	l-11.25-297.422c-0.718-18.367,4.069-25.408,6.16-27.583c1.591-1.654,3.297-2.424,5.37-2.424c2.072,0,3.778,0.771,5.369,2.424
	c2.089,2.173,6.87,9.205,6.161,27.55c0,0.014-0.002,0.028-0.002,0.042l-8.967,237.09l-2.282,60.322
	C321.014,404.934,320.713,404.934,320.584,404.881z"/>
<path d="M424.919,286.669c-12.224-2.153-23.908,6.045-26.056,18.264c-1.041,5.919,0.286,11.89,3.735,16.811
	c3.449,4.921,8.609,8.205,14.528,9.246c1.316,0.231,2.635,0.346,3.944,0.346c4.578,0,9.04-1.399,12.866-4.081
	c4.922-3.45,8.205-8.609,9.246-14.528c1.041-5.919-0.286-11.89-3.735-16.811C435.998,290.994,430.838,287.71,424.919,286.669z
	 M428.409,310.129c-0.347,1.973-1.441,3.693-3.082,4.843s-3.634,1.591-5.603,1.245c-1.973-0.347-3.693-1.441-4.843-3.082
	c-1.149-1.64-1.592-3.63-1.245-5.604c0.64-3.636,3.812-6.202,7.383-6.202c0.43,0,0.865,0.037,1.303,0.114
	c1.973,0.347,3.693,1.441,4.843,3.082C428.313,306.165,428.756,308.155,428.409,310.129z"/>
<path d="M454.151,250.341c1.041-5.919-0.286-11.89-3.735-16.811c-3.449-4.921-8.609-8.205-14.528-9.246
	c-5.92-1.041-11.89,0.286-16.81,3.735c-4.922,3.45-8.205,8.609-9.246,14.528c-1.041,5.919,0.286,11.89,3.735,16.811
	c3.449,4.921,8.609,8.205,14.528,9.246c1.313,0.231,2.618,0.342,3.907,0.342C442.713,268.947,452.233,261.247,454.151,250.341z
	 M439.378,247.743c-0.717,4.074-4.615,6.807-8.685,6.088c-1.973-0.347-3.693-1.441-4.843-3.082c-1.149-1.64-1.592-3.63-1.245-5.604
	c0.347-1.973,1.441-3.693,3.082-4.843c1.275-0.894,2.763-1.36,4.289-1.36c0.437,0,0.876,0.038,1.314,0.115
	c1.973,0.347,3.693,1.441,4.843,3.082C439.282,243.78,439.724,245.77,439.378,247.743z"/>
<path d="M439.063,206.22c1.316,0.231,2.635,0.346,3.944,0.346c4.578,0,9.04-1.399,12.866-4.082c4.922-3.45,8.205-8.609,9.246-14.528
	c2.148-12.219-6.045-23.908-18.263-26.056c-5.919-1.041-11.89,0.286-16.81,3.735c-4.922,3.45-8.205,8.609-9.246,14.528
	c-1.041,5.919,0.286,11.89,3.735,16.811C427.984,201.896,433.144,205.179,439.063,206.22z M435.573,182.761
	c0.347-1.973,1.441-3.693,3.082-4.843c1.275-0.894,2.763-1.36,4.289-1.36c0.437,0,0.876,0.038,1.314,0.115
	c4.073,0.716,6.804,4.612,6.088,8.685c-0.347,1.973-1.441,3.693-3.082,4.843c-1.641,1.149-3.633,1.592-5.603,1.245
	c-1.973-0.347-3.693-1.441-4.843-3.082C435.669,186.724,435.226,184.734,435.573,182.761z"/>
<path d="M262.558,405.546c1.114-1.65,1.527-3.675,1.147-5.629l-61.6-316.894c-0.789-4.062-4.71-6.719-8.785-5.933l-70.484,13.615
	c-1.954,0.377-3.679,1.517-4.793,3.166c-1.113,1.65-1.526,3.675-1.146,5.629l61.6,316.893c0.696,3.583,3.835,6.07,7.354,6.07
	c0.471,0,0.95-0.045,1.431-0.138l70.485-13.615C259.72,408.334,261.445,407.195,262.558,405.546z M191.791,406.178L133.053,104.01
	l55.757-10.771l58.738,302.169L191.791,406.178z"/>
<path d="M184.115,217.881c-4.066,0.791-6.722,4.728-5.932,8.794l9.512,48.931c0.696,3.583,3.836,6.07,7.354,6.07
	c0.474,0,0.956-0.045,1.438-0.139c4.066-0.791,6.722-4.728,5.932-8.794l-9.512-48.931
	C192.119,219.747,188.185,217.093,184.115,217.881z"/>
<g>
</g>
<g>
</g>
<g>
</g>
<g>
</g>
<g>
</g>
<g>
</g>
<g>
</g>
<g>
</g>
<g>
</g>
<g>
</g>
<g>
</g>
<g>
</g>
<g>
</g>
<g>
</g>
<g>
</g>
</svg>
