<svg height="512pt" viewBox="0 0 512 512" width="512pt" xmlns="http://www.w3.org/2000/svg"><path d="m50 240.332031h412v261.667969h-412zm0 0" fill="#ffc15a"/><path d="m294 320h168v120h-168zm0 0" fill="#cff1fb"/><path d="m98 320h128v182h-128zm0 0" fill="#98a1b3"/><path d="m210.800781 154v77.894531c0 24.964844-20.238281 45.199219-45.199219 45.199219-24.964843 0-45.203124-20.234375-45.203124-45.199219v-77.894531zm0 0" fill="#ff9357"/><path d="m301.199219 154v77.894531c0 24.964844-20.234375 45.199219-45.199219 45.199219s-45.199219-20.234375-45.199219-45.199219v-77.894531zm0 0" fill="#fff"/><path d="m391.601562 154v77.894531c0 24.964844-20.238281 45.199219-45.203124 45.199219-24.960938 0-45.199219-20.234375-45.199219-45.199219v-77.894531zm0 0" fill="#ff9357"/><g fill="#fff"><path d="m482 154v77.894531c0 24.964844-20.238281 45.199219-45.199219 45.199219-24.964843 0-45.199219-20.234375-45.199219-45.199219v-77.894531zm0 0"/><path d="m120.398438 154v77.894531c0 24.964844-20.234376 45.199219-45.199219 45.199219-24.960938 0-45.199219-20.234375-45.199219-45.199219v-77.894531zm0 0"/><path d="m356 110c0 55.226562-44.773438 100-100 100s-100-44.773438-100-100 44.773438-100 100-100 100 44.773438 100 100zm0 0"/></g><path d="m266.605469 129.8125c0 16.613281-13.46875 30.082031-30.082031 30.082031-16.613282 0-30.082032-13.46875-30.082032-30.082031s13.46875-30.082031 30.082032-30.082031c16.613281 0 30.082031 13.46875 30.082031 30.082031zm0 0" fill="#ff9357"/><path d="m502 492h-30v-217.621094c12.210938-10.132812 20-25.414062 20-42.484375v-77.894531c0-5.523438-4.476562-10-10-10h-121.386719c3.492188-10.710938 5.386719-22.136719 5.386719-34 0-60.652344-49.347656-110-110-110s-110 49.347656-110 110c0 11.863281 1.894531 23.289062 5.386719 34h-121.386719c-5.523438 0-10 4.476562-10 10v77.894531c0 17.070313 7.789062 32.351563 20 42.488281v217.617188h-30c-5.523438 0-10 4.476562-10 10s4.476562 10 10 10h328c5.523438 0 10-4.476562 10-10s-4.476562-10-10-10h-102v-172c0-5.523438-4.476562-10-10-10h-128c-5.523438 0-10 4.476562-10 10v172h-28v-207.050781c4.832031 1.386719 9.929688 2.144531 15.199219 2.144531 18.679687 0 35.207031-9.332031 45.199219-23.570312 9.996093 14.238281 26.523437 23.570312 45.203124 23.570312 18.675782 0 35.207032-9.332031 45.199219-23.570312 9.992188 14.238281 26.519531 23.570312 45.199219 23.570312s35.207031-9.332031 45.199219-23.570312c9.992187 14.238281 26.523437 23.570312 45.199219 23.570312 18.679687 0 35.207031-9.332031 45.203124-23.570312 9.992188 14.238281 26.519532 23.570312 45.199219 23.570312 5.269531 0 10.367188-.757812 15.199219-2.144531v25.050781h-158c-5.523438 0-10 4.476562-10 10v120c0 5.523438 4.476562 10 10 10h158v42h-34c-5.523438 0-10 4.476562-10 10s4.476562 10 10 10h84c5.523438 0 10-4.476562 10-10s-4.476562-10-10-10zm-394-162h108v162h-108zm148-310c49.625 0 90 40.375 90 90s-40.375 90-90 90-90-40.375-90-90 40.375-90 90-90zm-180.800781 247.09375c-19.410157 0-35.199219-15.789062-35.199219-35.199219v-67.894531h70.398438v67.894531c0 19.410157-15.789063 35.199219-35.199219 35.199219zm90.402343 0c-19.410156 0-35.203124-15.789062-35.203124-35.199219v-67.894531h29.796874c9.644532 17.039062 23.699219 31.265625 40.605469 41.113281v26.78125c0 19.410157-15.792969 35.199219-35.199219 35.199219zm90.398438 0c-19.410156 0-35.199219-15.789062-35.199219-35.199219v-17.667969c11.054688 3.742188 22.894531 5.773438 35.199219 5.773438s24.144531-2.03125 35.199219-5.773438v17.667969c0 19.410157-15.789063 35.199219-35.199219 35.199219zm90.398438 0c-19.40625 0-35.199219-15.789062-35.199219-35.199219v-26.78125c16.90625-9.847656 30.960937-24.074219 40.605469-41.113281h29.796874v67.894531c0 19.410157-15.792968 35.199219-35.203124 35.199219zm55.203124-35.199219v-67.894531h70.398438v67.894531c0 19.410157-15.789062 35.199219-35.199219 35.199219-19.410156 0-35.199219-15.789062-35.199219-35.199219zm50.398438 118.714844-77.320312 77.320313c-.628907.632812-1.148438 1.332031-1.578126 2.070312h-54.957031l98.59375-98.59375c.4375-.441406.820313-.914062 1.160157-1.40625h34.101562zm-62.144531-20.609375-85.855469 85.855469v-85.855469zm11.039062 100 51.105469-51.105469v51.105469zm0 0"/><path d="m236.523438 169.894531c22.101562 0 40.082031-17.980469 40.082031-40.082031v-58.445312c6.941406 3.917968 13.015625 9.234374 17.839843 15.660156 3.316407 4.417968 9.582032 5.308594 14 1.992187 4.417969-3.316406 5.308594-9.582031 1.992188-14-8.714844-11.609375-20.46875-20.53125-33.988281-25.808593l-6.207031-2.421876c-3.082032-1.199218-6.550782-.804687-9.277344 1.058594-2.726563 1.863282-4.359375 4.953125-4.359375 8.257813v39.042969c-5.910157-3.4375-12.765625-5.417969-20.082031-5.417969-22.101563 0-40.082032 17.980469-40.082032 40.082031s17.980469 40.082031 40.082032 40.082031zm0-60.164062c11.074218 0 20.082031 9.007812 20.082031 20.082031s-9.007813 20.082031-20.082031 20.082031c-11.074219 0-20.082032-9.007812-20.082032-20.082031s9.007813-20.082031 20.082032-20.082031zm0 0"/><path d="m186.332031 396.332031c-5.523437 0-10 4.476563-10 10v9.332031c0 5.523438 4.476563 10 10 10 5.523438 0 10-4.476562 10-10v-9.332031c0-5.519531-4.476562-10-10-10zm0 0"/><path d="m378 492c-2.628906 0-5.210938 1.070312-7.070312 2.929688-1.859376 1.859374-2.929688 4.441406-2.929688 7.070312s1.070312 5.210938 2.929688 7.070312c1.859374 1.859376 4.441406 2.929688 7.070312 2.929688s5.210938-1.070312 7.070312-2.929688c1.859376-1.859374 2.929688-4.441406 2.929688-7.070312 0-2.640625-1.070312-5.210938-2.929688-7.070312-1.859374-1.859376-4.441406-2.929688-7.070312-2.929688zm0 0"/></svg>