<?xml version="1.0" encoding="iso-8859-1"?>
<!-- Generator: Adobe Illustrator 19.0.0, SVG Export Plug-In . SVG Version: 6.00 Build 0)  -->
<svg version="1.1" id="Capa_1" xmlns="http://www.w3.org/2000/svg" xmlns:xlink="http://www.w3.org/1999/xlink" x="0px" y="0px"
	 viewBox="0 0 512 512" style="enable-background:new 0 0 512 512;" xml:space="preserve">
<path style="fill:#FFDEA9;" d="M253.946,249.255c-42.66-42.512,11.206-130.738-18.384-124.866
	c-57.182,11.347-74.84,87.499-93.167,105.762c-39.358,39.222-69.423,17.547-106.788,54.783
	C-7.964,328.354,0.951,404.185,49.714,452.78c50.409,50.235,125.801,56.54,168.405,14.084
	c37.253-37.124,15.622-66.748,55.157-106.226c30.766-30.721,70.724-41.414,76.677-61.254
	C361.452,261.059,299.558,294.709,253.946,249.255z"/>
<g>
	<path style="fill:#FFBF7B;" d="M328.438,277.533c-0.026,0.089-0.046,0.172-0.073,0.261c-5.953,19.841-45.911,30.533-76.677,61.254
		c-39.536,39.478-17.905,69.102-55.157,106.226c-39.544,39.407-107.331,36.797-157.174-3.949c3.223,3.955,6.675,7.783,10.357,11.453
		c50.409,50.235,125.801,56.54,168.405,14.083c37.253-37.124,15.622-66.748,55.157-106.226
		c30.766-30.721,70.724-41.414,76.677-61.254C355.193,281.92,345.191,279.401,328.438,277.533z"/>
	<path style="fill:#FFBF7B;" d="M232.358,227.667c4.312,4.297,8.77,7.885,13.297,10.896
		c-26.488-44.985,17.193-119.588-10.093-114.174c-4.979,0.988-9.651,2.477-14.057,4.366
		C216.677,156.917,205.769,201.17,232.358,227.667z"/>
</g>
<polygon style="fill:#FF803C;" points="238.1,334.088 168.108,264.338 194.355,238.182 264.347,307.932 "/>
<polygon style="fill:#F76328;" points="238.132,334.119 216.565,312.795 242.78,286.608 264.347,307.932 "/>
<polygon style="fill:#FF803C;" points="176.687,395.288 106.695,325.539 132.942,299.383 202.934,369.132 "/>
<polygon style="fill:#F76328;" points="176.719,395.32 155.562,374.406 181.778,348.219 202.934,369.132 "/>
<g>
	<circle style="fill:#FF803C;" cx="132.64" cy="446.18" r="18.999"/>
	<circle style="fill:#FF803C;" cx="193.18" cy="439.68" r="12.499"/>
</g>
<polygon style="fill:#735458;" points="244.224,287.879 214.478,258.235 406.425,66.953 436.172,96.597 "/>
<path style="fill:#A66856;" d="M498.93,60.42c-0.29,0.32-0.57,0.61-0.82,0.86c-4.78,4.77-11.35,6.83-18.02,6.28l-47.37,48.57
	c-6.47,6.95-18.16,6.45-25.76-1.13l-20.79-20.71l-9.06-9.02c-2.42-2.41-2.28-6.15,0.28-7.78l82.67-54.12
	c5.92-5.9,14.59-7.66,22.81-5.45c4.7,1.25,9.25,3.8,13.07,7.61C506.12,35.68,507.35,51.05,498.93,60.42z"/>
<path style="fill:#8F5040;" d="M498.93,60.42c-0.29,0.32-0.57,0.61-0.82,0.86c-4.78,4.77-11.35,6.83-18.02,6.28l-47.37,48.57
	c-6.47,6.95-18.16,6.45-25.76-1.13l-20.79-20.71l0.05-0.03c7.6,7.58,19.29,8.09,25.77,1.13l42.415-43.489
	c2.742-2.812,6.332-4.68,10.227-5.19c4.768-0.624,9.234-2.668,12.748-6.16c5.89-5.88,7.66-14.46,5.49-22.63
	c4.7,1.25,9.25,3.8,13.07,7.61C506.12,35.68,507.35,51.05,498.93,60.42z"/>
<path d="M303.055,328.23c-10.101,6.421-23.215,15.312-35.074,27.159c-21.544,21.511-26.359,41.04-30.608,58.269
	c-3.951,16.025-7.684,31.161-24.548,47.971c-39.614,39.484-110.413,33.166-157.823-14.083C29.58,422.207,15,388.74,15,355.726
	c0-25.921,8.957-48.55,25.902-65.442c8.23-8.203,16.567-13.886,26.241-17.885c3.828-1.582,5.649-5.97,4.067-9.799
	c-1.582-3.828-5.968-5.648-9.796-4.067c-11.551,4.776-21.434,11.488-31.101,21.124C10.766,299.143,0,326.158,0,355.726
	c0,36.973,16.189,74.314,44.414,102.447c29.38,29.281,66.987,44.327,102.44,44.327c28.801,0,56.185-9.937,76.559-30.243
	c19.836-19.771,24.252-37.684,28.524-55.006c4.146-16.813,8.062-32.692,26.643-51.245c10.828-10.817,23.068-19.103,32.523-25.114
	c3.495-2.222,4.528-6.858,2.306-10.355C311.187,327.041,306.551,326.007,303.055,328.23z"/>
<path d="M138.234,294.113c-2.926-2.917-7.662-2.917-10.588,0l-26.247,26.162c-1.412,1.408-2.206,3.32-2.206,5.314
	c0,1.995,0.794,3.906,2.206,5.314l69.992,69.765c1.463,1.458,3.379,2.188,5.294,2.188c1.915,0,3.831-0.73,5.294-2.188l26.247-26.162
	c1.412-1.408,2.206-3.32,2.206-5.314s-0.794-3.906-2.206-5.314L138.234,294.113z M176.685,384.764l-59.367-59.175l15.622-15.572
	l59.367,59.175L176.685,384.764z"/>
<path d="M148.566,425.074L148.566,425.074c-5.656-4.256-12.629-6.052-19.64-5.062c-7.008,0.991-13.211,4.652-17.466,10.31
	c-4.255,5.658-6.053,12.634-5.063,19.644c0.991,7.01,4.652,13.215,10.309,17.47c4.64,3.492,10.168,5.329,15.874,5.329
	c1.249,0,2.507-0.088,3.766-0.266c7.008-0.991,13.211-4.652,17.467-10.31c4.255-5.659,6.052-12.635,5.062-19.645
	C157.883,435.534,154.222,429.33,148.566,425.074z M141.826,453.17c-1.847,2.455-4.538,4.044-7.58,4.474
	c-3.04,0.432-6.066-0.35-8.522-2.198c-2.455-1.846-4.044-4.538-4.474-7.581c-0.43-3.042,0.351-6.069,2.196-8.523
	c1.847-2.455,4.538-4.044,7.58-4.475c0.546-0.077,1.092-0.115,1.634-0.115c2.476,0,4.874,0.797,6.888,2.312c0,0,0,0,0,0.001
	c2.455,1.846,4.044,4.538,4.474,7.581C144.452,447.688,143.671,450.716,141.826,453.17z"/>
<path d="M205.199,423.768c-8.814-6.629-21.375-4.853-28.006,3.961c-6.628,8.815-4.852,21.381,3.96,28.012
	c3.503,2.634,7.675,4.021,11.981,4.021c0.942,0,1.892-0.066,2.841-0.201c5.29-0.748,9.972-3.512,13.184-7.781
	C215.788,442.965,214.012,430.398,205.199,423.768z M197.171,442.761c-1.655,2.204-4.797,2.648-7,0.99
	c-2.203-1.658-2.646-4.799-0.99-7.003c0.981-1.305,2.482-1.993,4.002-1.993c1.046,0,2.101,0.327,2.999,1.003
	C198.385,437.416,198.829,440.557,197.171,442.761z"/>
<path d="M501.229,20.193c-13.193-13.151-33.585-14.3-45.867-2.735l-5.149,3.371l-8.428-8.404c-2.934-2.925-7.683-2.919-10.606,0.017
	c-2.925,2.934-2.917,7.684,0.017,10.609l6.194,6.176l-10.745,7.036l-8.739-8.714c-2.934-2.925-7.683-2.919-10.606,0.017
	c-2.925,2.934-2.917,7.683,0.017,10.609l6.504,6.485l-10.746,7.037l-9.009-8.984c-2.934-2.924-7.681-2.919-10.606,0.017
	c-2.924,2.933-2.917,7.683,0.017,10.609l6.774,6.756L373.364,71.15c-3.045,1.938-5.019,5.132-5.413,8.764
	c-0.426,3.906,0.982,7.793,3.862,10.663l0.141,0.14l-26.006,25.922c-0.021,0.021-0.044,0.038-0.065,0.059
	c-0.02,0.02-0.036,0.041-0.055,0.061l-100.225,99.902c-3.476-18.657,0.351-39.861,3.542-57.507
	c3.467-19.167,5.757-31.829-1.346-38.813c-2.325-2.287-6.591-4.718-13.7-3.306c-43.893,8.715-65.532,50.864-81.331,81.641
	c-5.962,11.613-11.111,21.643-15.674,26.189c-16.4,16.351-30.7,21.074-43.941,24.51c-4.009,1.04-6.416,5.135-5.376,9.146
	c0.877,3.379,3.92,5.619,7.255,5.619c0.623,0,1.257-0.078,1.889-0.242c14.565-3.78,31.702-9.405,50.761-28.404
	c6.237-6.215,11.618-16.695,18.43-29.964c14.402-28.053,34.126-66.474,70.908-73.778c0.103-0.021,0.199-0.038,0.289-0.053
	c0.786,4.268-1.337,16.006-2.924,24.785c-3.74,20.675-8.775,48.513-1.138,72.494l-18.767,18.706l-14.833-14.785
	c-2.926-2.917-7.662-2.917-10.588,0l-26.246,26.161c-1.412,1.408-2.206,3.319-2.206,5.314c0,1.994,0.794,3.906,2.206,5.314
	l69.991,69.766c1.464,1.458,3.378,2.188,5.294,2.188c1.915,0,3.831-0.73,5.294-2.188l26.247-26.162
	c1.412-1.408,2.206-3.32,2.206-5.314c0-1.995-0.794-3.906-2.206-5.314l-14.793-14.745l16.598-16.544
	c18.559,9.715,37.456,11.691,51.577,13.164c8.291,0.864,18.608,1.94,20.385,4.608c0.29,0.437,1.103,2.311-0.641,8.122
	c-1.245,4.152-5.382,8.613-13.017,14.039c-3.377,2.4-4.169,7.084-1.771,10.46c1.463,2.059,3.774,3.158,6.121,3.158
	c1.502,0,3.02-0.45,4.337-1.387c7.166-5.093,15.767-12.19,18.696-21.958c2.629-8.762,2.222-15.55-1.243-20.753
	c-5.688-8.54-16.996-9.719-31.313-11.212c-12.359-1.289-27.241-2.86-41.881-9.457l12.997-12.954c0.501-0.305,0.978-0.666,1.411-1.1
	c0.427-0.427,0.784-0.896,1.087-1.39l27.461-27.371c0.404-0.27,0.789-0.581,1.145-0.937c0.349-0.349,0.653-0.725,0.918-1.119
	l28.027-27.936c0.258-0.198,0.51-0.408,0.746-0.644c0.231-0.231,0.437-0.477,0.631-0.728l58.271-58.081
	c1.861,0.415,3.758,0.636,5.659,0.636c0.158,0,0.316-0.002,0.475-0.005c6.466-0.121,12.364-2.685,16.621-7.222l4.877-5.002
	c2.893-2.966,2.833-7.716-0.133-10.608c-2.966-2.895-7.714-2.834-10.605,0.133l-4.934,5.06c-0.041,0.042-0.081,0.084-0.121,0.127
	c-1.878,2.019-4.293,2.48-5.987,2.512c-3.22,0.045-6.482-1.34-8.993-3.844L384.346,81.89l21.806-14.278
	c0.041-0.026,0.081-0.052,0.121-0.079l23.458-15.36c0.036-0.023,0.071-0.046,0.107-0.07l23.46-15.361
	c0.038-0.024,0.075-0.049,0.113-0.074l10.759-7.045c0.428-0.28,0.825-0.603,1.187-0.963c6.374-6.354,17.715-5.383,25.283,2.162
	c4.041,4.028,6.358,9.334,6.358,14.558c0,4.135-1.485,7.892-4.181,10.58c-3.057,3.047-7.37,4.499-12.115,4.117
	c-2.217-0.179-4.421,0.637-5.983,2.238l-19.905,20.411c-2.892,2.966-2.833,7.716,0.132,10.609c2.966,2.892,7.715,2.832,10.606-0.132
	l17.631-18.079c7.713-0.248,14.932-3.262,20.223-8.536C508.948,61.063,512,53.531,512,45.379
	C512,36.196,508.074,27.016,501.229,20.193z M351.146,170.753l-19.086-19.09l19.118-19.057l19.086,19.09L351.146,170.753z
	 M321.401,200.4l-19.085-19.089l19.119-19.057l19.085,19.089L321.401,200.4z M291.656,230.047l-19.084-19.088l19.118-19.057
	l19.084,19.089L291.656,230.047z M238.099,323.55l-59.366-59.176l15.621-15.571l14.816,14.768c0.006,0.006,0.01,0.012,0.016,0.018
	l29.739,29.646c0.018,0.018,0.037,0.032,0.055,0.05l14.741,14.693L238.099,323.55z M225.105,258.274l36.842-36.724l19.084,19.088
	l-36.81,36.689L225.105,258.274z M401.707,120.357l-20.816,20.748l-19.087-19.091l20.776-20.71l19.081,19.01
	C401.676,120.329,401.692,120.342,401.707,120.357z"/>
<g>
</g>
<g>
</g>
<g>
</g>
<g>
</g>
<g>
</g>
<g>
</g>
<g>
</g>
<g>
</g>
<g>
</g>
<g>
</g>
<g>
</g>
<g>
</g>
<g>
</g>
<g>
</g>
<g>
</g>
</svg>
