<?xml version="1.0" encoding="iso-8859-1"?>
<!-- Generator: Adobe Illustrator 19.0.0, SVG Export Plug-In . SVG Version: 6.00 Build 0)  -->
<svg version="1.1" id="Layer_1" xmlns="http://www.w3.org/2000/svg" xmlns:xlink="http://www.w3.org/1999/xlink" x="0px" y="0px"
	 viewBox="0 0 512 512" style="enable-background:new 0 0 512 512;" xml:space="preserve">
<path style="fill:#A5A5A5;" d="M503.916,86.232v36.379H8.084V86.232c0-23.812,19.304-43.116,43.116-43.116h409.6
	C484.612,43.116,503.916,62.42,503.916,86.232z"/>
<path style="fill:#E9F2F4;" d="M503.916,107.789V409.6c0,23.812-19.304,43.116-43.116,43.116H51.2
	c-23.813,0-43.116-19.304-43.116-43.116V107.789h64.674V32.337c0-11.906,9.651-21.558,21.558-21.558h86.232
	c11.906,0,21.558,9.651,21.558,21.558v75.453H503.916z"/>
<path style="fill:#CFDFE2;" d="M450.021,264.084v118.568c0,11.906-9.651,21.558-21.558,21.558H83.537
	c-11.906,0-21.558-9.651-21.558-21.558V264.084c0-11.906,9.651-21.558,21.558-21.558h344.926
	C440.37,242.526,450.021,252.178,450.021,264.084z M83.537,199.411h97.011c11.906,0,21.558-9.651,21.558-21.558
	c0-11.906-9.651-21.558-21.558-21.558H83.537c-11.906,0-21.558,9.651-21.558,21.558C61.979,189.759,71.63,199.411,83.537,199.411z
	 M256,199.411h172.463c11.906,0,21.558-9.651,21.558-21.558c0-11.906-9.651-21.558-21.558-21.558H256
	c-11.906,0-21.558,9.651-21.558,21.558C234.442,189.759,244.094,199.411,256,199.411z"/>
<path style="fill:#C3E4ED;" d="M202.105,32.337v75.453H72.758V32.337c0-11.906,9.651-21.558,21.558-21.558h86.232
	C192.454,10.779,202.105,20.43,202.105,32.337z"/>
<path style="fill:#B2D1D8;" d="M180.547,48.505v21.558c0,5.953-4.826,10.779-10.779,10.779h-64.674
	c-5.953,0-10.779-4.826-10.779-10.779V48.505c0-5.953,4.826-10.779,10.779-10.779h64.674
	C175.722,37.726,180.547,42.552,180.547,48.505z"/>
<path style="fill:#FC8059;" d="M392.107,188.401c-0.798,1.011-1.879,1.578-3.007,1.578H353.01v254.653v5.389
	c0,31.204-25.385,56.589-56.589,56.589s-56.589-25.385-56.589-56.589v-3.593H256v3.593c0,22.289,18.132,40.421,40.421,40.421
	c22.289,0,40.421-18.132,40.421-40.421v-5.389V189.979h-19.921c-1.127,0-2.21-0.568-3.007-1.578c-1.661-2.105-1.661-5.517,0-7.622
	l33.082-41.92c3.322-4.209,8.707-4.209,12.029,0l33.081,41.92C393.768,182.883,393.768,186.296,392.107,188.401z"/>
<path style="fill:#E8BA52;" d="M450.021,362.442c0,53.578-43.433,97.011-97.011,97.011S256,416.02,256,362.442
	s43.433-97.01,97.011-97.01S450.021,308.864,450.021,362.442z"/>
<path style="fill:#FED766;" d="M428.463,362.442c0,41.671-33.781,75.453-75.453,75.453s-75.453-33.781-75.453-75.453
	s33.781-75.453,75.453-75.453S428.463,320.771,428.463,362.442z"/>
<path style="fill:#4C4C4C;" d="M377.263,73.297v-1.078c0-4.465,3.618-8.084,8.084-8.084s8.084,3.62,8.084,8.084v1.078
	c0,4.465-3.618,8.084-8.084,8.084S377.263,77.761,377.263,73.297z M417.684,81.381c4.466,0,8.084-3.62,8.084-8.084v-1.078
	c0-4.465-3.618-8.084-8.084-8.084c-4.466,0-8.084,3.62-8.084,8.084v1.078C409.6,77.761,413.218,81.381,417.684,81.381z
	 M450.021,81.381c4.466,0,8.084-3.62,8.084-8.084v-1.078c0-4.465-3.618-8.084-8.084-8.084s-8.084,3.62-8.084,8.084v1.078
	C441.937,77.761,445.555,81.381,450.021,81.381z M512,83.537v21.558v301.811c0,28.231-22.969,51.2-51.2,51.2h-61.464
	c-12.144,5.989-25.601,9.698-39.815,10.571C353.516,493.809,330.999,512,304.505,512c-30.3,0-55.11-23.938-56.522-53.895H51.2
	c-28.231,0-51.2-22.969-51.2-51.2V105.095V83.537c0-28.231,22.969-51.2,51.2-51.2h13.474v-2.695C64.674,13.297,77.972,0,94.316,0
	h86.232c16.344,0,29.642,13.297,29.642,29.642v2.695H460.8C489.031,32.337,512,55.306,512,83.537z M210.189,48.505v48.505h285.642
	V83.537c0-19.316-15.715-35.032-35.032-35.032H210.189z M80.842,97.011h113.179V29.642c0-7.43-6.044-13.474-13.474-13.474H94.316
	c-7.43,0-13.474,6.044-13.474,13.474V97.011z M16.168,83.537v13.474h48.505V48.505H51.2C31.883,48.505,16.168,64.221,16.168,83.537z
	 M342.801,468.387c-12.852-1.245-25.031-4.815-36.115-10.282h-42.501c1.393,21.035,18.94,37.726,40.321,37.726
	C322.18,495.832,337.376,484.502,342.801,468.387z M382.689,183.242l-29.679-37.609l-29.679,37.609H382.689z M264.084,363.789
	c0,49.035,39.893,88.926,88.926,88.926s88.926-39.892,88.926-88.926s-39.893-88.926-88.926-88.926S264.084,314.755,264.084,363.789z
	 M495.832,113.179H16.168v293.726c0,19.316,15.715,35.032,35.032,35.032h231.62c-21.413-19.252-34.904-47.152-34.904-78.147
	c0-55.229,42.824-100.645,97.011-104.786v-59.592h-28.004c-3.612,0-7.022-1.698-9.356-4.657c-3.966-5.025-3.966-12.608,0.002-17.637
	l33.081-41.919c3.126-3.961,7.631-6.233,12.361-6.233c4.73,0,9.234,2.272,12.361,6.233l33.081,41.92
	c3.968,5.027,3.968,12.61,0,17.639c-0.001,0-0.001,0.001-0.001,0.001c-2.335,2.957-5.744,4.652-9.353,4.652h-28.004v59.592
	c54.187,4.141,97.011,49.557,97.011,104.786c0,30.995-13.491,58.895-34.904,78.147H460.8c19.317,0,35.032-15.716,35.032-35.032
	V113.179z M296.421,332.923c0-14.184,11.539-25.723,25.722-25.723c14.184,0,25.723,11.539,25.723,25.723
	c0,14.183-11.539,25.722-25.723,25.722C307.96,358.645,296.421,347.106,296.421,332.923z M312.589,332.923
	c0,5.268,4.286,9.553,9.553,9.553s9.554-4.286,9.554-9.553c0-5.269-4.287-9.554-9.554-9.554S312.589,327.654,312.589,332.923z
	 M409.6,394.656c0,14.184-11.539,25.723-25.722,25.723c-14.184,0-25.723-11.539-25.723-25.723c0-14.183,11.539-25.722,25.723-25.722
	C398.061,368.934,409.6,380.473,409.6,394.656z M393.432,394.656c0-5.268-4.286-9.553-9.553-9.553s-9.554,4.286-9.554,9.553
	c0,5.269,4.287,9.554,9.554,9.554S393.432,399.925,393.432,394.656z M304.178,412.621c1.579,1.578,3.649,2.368,5.717,2.368
	s4.138-0.789,5.717-2.368l86.232-86.232c3.157-3.157,3.157-8.276,0-11.432c-3.158-3.157-8.276-3.157-11.433,0l-86.232,86.232
	C301.021,404.345,301.021,409.465,304.178,412.621z"/>
<g>
</g>
<g>
</g>
<g>
</g>
<g>
</g>
<g>
</g>
<g>
</g>
<g>
</g>
<g>
</g>
<g>
</g>
<g>
</g>
<g>
</g>
<g>
</g>
<g>
</g>
<g>
</g>
<g>
</g>
</svg>
