<?xml version="1.0" encoding="iso-8859-1"?>
<!-- Generator: Adobe Illustrator 19.0.0, SVG Export Plug-In . SVG Version: 6.00 Build 0)  -->
<svg version="1.1" id="Layer_1" xmlns="http://www.w3.org/2000/svg" xmlns:xlink="http://www.w3.org/1999/xlink" x="0px" y="0px"
	 viewBox="0 0 512 512" style="enable-background:new 0 0 512 512;" xml:space="preserve">
<path style="fill:#D7DEED;" d="M379.586,379.586H264.828v-52.966h-17.655v52.966H132.414c-14.603,0-26.483,11.88-26.483,26.483
	v44.138h17.655v-44.138c0-4.871,3.961-8.828,8.828-8.828h114.759v52.966h17.655v-52.966h114.759c4.866,0,8.828,3.957,8.828,8.828
	v44.138h17.655v-44.138C406.069,391.466,394.189,379.586,379.586,379.586z"/>
<path style="fill:#BDC6DB;" d="M264.828,326.621h-17.655v26.036c2.945,0.139,5.848,0.447,8.828,0.447s5.882-0.308,8.828-0.447
	V326.621z"/>
<path style="fill:#FF6464;" d="M150.069,512H79.448c-4.875,0-8.828-3.953-8.828-8.828v-52.966c0-4.875,3.953-8.828,8.828-8.828
	h70.621c4.875,0,8.828,3.953,8.828,8.828v52.966C158.897,508.047,154.944,512,150.069,512z"/>
<path style="fill:#FFD782;" d="M291.31,512H220.69c-4.875,0-8.828-3.953-8.828-8.828v-52.966c0-4.875,3.953-8.828,8.828-8.828
	h70.621c4.875,0,8.828,3.953,8.828,8.828v52.966C300.138,508.047,296.185,512,291.31,512z"/>
<path style="fill:#18BDF6;" d="M432.552,512h-70.621c-4.875,0-8.828-3.953-8.828-8.828v-52.966c0-4.875,3.953-8.828,8.828-8.828
	h70.621c4.875,0,8.828,3.953,8.828,8.828v52.966C441.379,508.047,437.427,512,432.552,512z"/>
<circle style="fill:#707487;" cx="256" cy="167.724" r="158.897"/>
<circle style="fill:#FFF0E6;" cx="256" cy="167.724" r="123.586"/>
<circle style="fill:#FFE2C7;" cx="256" cy="167.724" r="61.793"/>
<path style="fill:#707487;" d="M233.931,198.621c-2.259,0-4.518-0.862-6.241-2.586c-3.448-3.448-3.448-9.035,0-12.483l83.862-83.862
	c3.448-3.448,9.035-3.448,12.483,0c3.448,3.448,3.448,9.035,0,12.483l-83.862,83.862
	C238.449,197.759,236.19,198.621,233.931,198.621z"/>
<path style="fill:#464655;" d="M317.793,176.552h-88.276c-4.875,0-8.828-3.948-8.828-8.828s3.953-8.828,8.828-8.828h88.276
	c4.875,0,8.828,3.948,8.828,8.828S322.668,176.552,317.793,176.552z"/>
<g>
	<path style="fill:#5B5D6E;" d="M256,335.448c-92.483,0-167.724-75.242-167.724-167.724S163.518,0,256,0
		s167.724,75.242,167.724,167.724S348.483,335.448,256,335.448z M256,17.655c-82.75,0-150.069,67.319-150.069,150.069
		S173.25,317.793,256,317.793s150.069-67.319,150.069-150.069S338.75,17.655,256,17.655z"/>
	<circle style="fill:#5B5D6E;" cx="256" cy="167.724" r="17.655"/>
</g>
<path style="fill:#FFDCB9;" d="M256,300.138c-73.013,0-132.414-59.396-132.414-132.414S182.987,35.31,256,35.31
	s132.414,59.396,132.414,132.414S329.013,300.138,256,300.138z M256,52.966c-63.281,0-114.759,51.482-114.759,114.759
	S192.719,282.483,256,282.483S370.759,231,370.759,167.724S319.281,52.966,256,52.966z"/>
<g>
	<path style="fill:#E1BE91;" d="M158.897,158.897h-17.655c-4.875,0-8.828,3.953-8.828,8.828l0,0c0,4.875,3.953,8.828,8.828,8.828
		h17.655c4.875,0,8.828-3.948,8.828-8.828S163.772,158.897,158.897,158.897z"/>
	<path style="fill:#E1BE91;" d="M370.759,158.897h-17.655c-4.875,0-8.828,3.953-8.828,8.828l0,0c0,4.875,3.953,8.828,8.828,8.828
		h17.655c4.875,0,8.828-3.948,8.828-8.828S375.634,158.897,370.759,158.897z"/>
	<path style="fill:#E1BE91;" d="M264.828,70.621V52.966c0-4.875-3.953-8.828-8.828-8.828l0,0c-4.875,0-8.828,3.953-8.828,8.828
		v17.655c0,4.875,3.948,8.828,8.828,8.828C260.879,79.448,264.828,75.496,264.828,70.621z"/>
	<path style="fill:#E1BE91;" d="M264.828,282.483v-17.655c0-4.875-3.953-8.828-8.828-8.828l0,0c-4.875,0-8.828,3.953-8.828,8.828
		v17.655c0,4.875,3.948,8.828,8.828,8.828C260.879,291.31,264.828,287.358,264.828,282.483z"/>
</g>
<path style="fill:#D2555A;" d="M132.414,485.517h-35.31c-4.875,0-8.828-3.953-8.828-8.828l0,0c0-4.875,3.953-8.828,8.828-8.828
	h35.31c4.875,0,8.828,3.953,8.828,8.828l0,0C141.241,481.565,137.289,485.517,132.414,485.517z"/>
<path style="fill:#FFC36E;" d="M273.655,485.517h-35.31c-4.875,0-8.828-3.953-8.828-8.828l0,0c0-4.875,3.953-8.828,8.828-8.828
	h35.31c4.875,0,8.828,3.953,8.828,8.828l0,0C282.483,481.565,278.53,485.517,273.655,485.517z"/>
<path style="fill:#23A0EB;" d="M414.897,485.517h-35.31c-4.875,0-8.828-3.953-8.828-8.828l0,0c0-4.875,3.953-8.828,8.828-8.828
	h35.31c4.875,0,8.828,3.953,8.828,8.828l0,0C423.724,481.565,419.772,485.517,414.897,485.517z"/>
<g>
</g>
<g>
</g>
<g>
</g>
<g>
</g>
<g>
</g>
<g>
</g>
<g>
</g>
<g>
</g>
<g>
</g>
<g>
</g>
<g>
</g>
<g>
</g>
<g>
</g>
<g>
</g>
<g>
</g>
</svg>
