<?xml version="1.0" encoding="iso-8859-1"?>
<!-- Generator: Adobe Illustrator 19.0.0, SVG Export Plug-In . SVG Version: 6.00 Build 0)  -->
<svg version="1.1" id="Capa_1" xmlns="http://www.w3.org/2000/svg" xmlns:xlink="http://www.w3.org/1999/xlink" x="0px" y="0px"
	 viewBox="0 0 512 512" style="enable-background:new 0 0 512 512;" xml:space="preserve">
<path style="fill:#F5A257;" d="M504.5,255.999c0,108.078-75.033,195.999-167.266,195.999c-29.463,0-133.006,0-162.459,0
	C82.543,451.997,7.5,364.076,7.5,255.999C7.5,147.931,82.543,60,174.775,60c29.453,0,132.996,0,162.459,0
	C429.467,60,504.5,147.931,504.5,255.999z"/>
<path style="fill:#595959;" d="M337.233,452c-92.232,0-167.267-87.924-167.267-195.998S245.001,60.003,337.233,60.003
	S504.5,147.928,504.5,256.002S429.464,452,337.233,452z"/>
<path style="fill:#464646;" d="M337.233,60.003c-5.056,0-10.057,0.28-15,0.797C407.462,69.719,474.5,153.852,474.5,256.001
	c0,102.15-67.038,186.283-152.267,195.202c4.943,0.517,9.944,0.797,15,0.797c92.231,0,167.267-87.924,167.267-195.999
	C504.5,147.928,429.464,60.003,337.233,60.003z"/>
<path style="fill:#FFDEA9;" d="M337.232,422c-35.685,0-69.564-16.672-95.4-46.946c-26.998-31.636-41.866-73.916-41.866-119.053
	s14.868-87.417,41.866-119.052c25.836-30.273,59.716-46.946,95.4-46.946s69.564,16.672,95.401,46.946
	c26.998,31.636,41.866,73.916,41.866,119.052c0,45.137-14.868,87.417-41.866,119.052C406.797,405.328,372.917,422,337.232,422z"/>
<path style="fill:#F3B573;" d="M498.952,427.349L498.952,427.349c-5.077,5.077-13.308,5.077-18.385,0l-114.779-114.78l18.385-18.385
	l114.779,114.779C504.029,414.041,504.029,422.272,498.952,427.349z"/>
<circle style="fill:#FF803C;" cx="362.97" cy="291.37" r="30.31"/>
<path d="M477.651,377.054C500.137,341.831,512,300.123,512,256c0-112.21-78.401-203.5-174.771-203.5h-162.45
	C78.405,52.5,0,143.79,0,256s78.405,203.5,174.779,203.5h162.45c42.448,0,82.917-17.741,114.767-50.116l23.265,23.265
	c3.869,3.876,9.019,6.012,14.499,6.012s10.63-2.135,14.494-6.007c7.993-7.994,7.993-21.001,0-28.996L477.651,377.054z
	 M200.247,444.5c-0.02,0-0.039-0.003-0.058-0.003c-44.358,0-84.547-21.443-113.526-55.997h91.333
	c17.976,24.342,40.803,43.688,66.715,56H200.247z M135.891,263.5c1.279,40.865,12.945,78.696,32.024,110H75.35
	c-20.614-30.421-33.416-68.507-34.8-110H135.891z M188.122,376.992c-0.171-0.27-0.353-0.531-0.556-0.775
	c-22.974-32.653-36.806-74.564-36.806-120.218c0-74.317,36.648-138.719,89.738-169.395C193.497,123.116,162.47,185.415,162.47,256
	c0,70.577,31.02,132.869,78.012,169.384C220.272,413.703,202.449,397.135,188.122,376.992z M177.993,123.5h-19.796
	c-4.143,0-7.5,3.358-7.5,7.5s3.357,7.5,7.5,7.5h9.716c-19.079,31.304-30.744,69.135-32.023,110H40.55
	c1.383-41.493,14.185-79.579,34.798-110h50.724c4.143,0,7.5-3.358,7.5-7.5s-3.357-7.5-7.5-7.5H86.66
	c28.979-34.555,69.169-56,113.528-56h44.516C218.793,79.813,195.968,99.158,177.993,123.5z M15,256
	c0-71.798,34.205-134.341,84.396-166.161c-44.73,36.892-73.984,97.621-73.984,166.159c0,48.851,14.865,93.732,39.599,128.847
	c0.208,0.347,0.439,0.679,0.699,0.987c9.812,13.755,21.147,25.986,33.702,36.339C49.212,390.354,15,327.805,15,256z
	 M493.642,422.052c-1.035,1.037-2.414,1.608-3.882,1.608s-2.847-0.571-3.887-1.613l-67.551-67.551
	c-2.929-2.929-7.677-2.929-10.607,0c-2.929,2.929-2.929,7.678,0,10.606l12.461,12.461c-23.36,23.873-52.571,36.937-82.947,36.937
	c-33.452,0-65.306-15.739-89.695-44.319C221.698,339.914,207.47,299.364,207.47,256s14.229-83.914,40.064-114.18
	c24.397-28.58,56.252-44.32,89.695-44.32c27.975,0,54.647,10.83,77.136,31.317c3.062,2.791,7.806,2.57,10.595-0.493
	c2.79-3.062,2.569-7.806-0.493-10.595C399.171,94.682,369.004,82.5,337.229,82.5c-37.904,0-73.811,17.608-101.104,49.581
	C207.974,165.06,192.47,209.069,192.47,256s15.504,90.94,43.655,123.918c27.284,31.973,63.19,49.582,101.104,49.582
	c34.427,0,67.37-14.617,93.554-41.329l10.605,10.605c-29.033,29.537-65.763,45.724-104.159,45.724
	c-88.092,0-159.76-84.561-159.76-188.5s71.668-188.5,159.76-188.5C425.327,67.5,497,152.061,497,256
	c0,40.076-10.429,77.962-30.231,110.172l-10.905-10.905C472.979,326.164,482,291.983,482,256c0-41.552-12.49-81.72-35.169-113.105
	c-2.427-3.358-7.114-4.112-10.472-1.687c-3.357,2.426-4.112,7.114-1.687,10.472C455.52,180.529,467,217.577,467,256
	c0,31.907-7.646,62.205-22.145,88.258l-44.942-44.942c2.589-12.124-0.807-25.282-10.206-34.682
	c-14.742-14.741-38.727-14.741-53.469,0c-7.141,7.141-11.073,16.635-11.073,26.734s3.933,19.593,11.073,26.733
	c7.142,7.141,16.636,11.074,26.734,11.074c2.712,0,5.379-0.293,7.97-0.846l14.148,14.148c1.465,1.464,3.385,2.197,5.304,2.197
	s3.839-0.732,5.304-2.197c2.929-2.929,2.929-7.678,0-10.606l-10.161-10.161c1.462-1.092,2.856-2.295,4.17-3.608
	c1.321-1.321,2.519-2.719,3.603-4.175l0,0c0.003,0.003-0.004-0.003,0,0l100.338,100.336c0.013,0.013-0.013-0.013,0,0l0,0
	C495.792,416.409,495.792,419.901,493.642,422.052z M346.844,307.495c-4.308-4.308-6.68-10.035-6.68-16.127
	s2.372-11.819,6.681-16.127c4.446-4.446,10.286-6.669,16.127-6.669s11.681,2.223,16.127,6.669c8.893,8.893,8.893,23.362,0,32.254
	S355.738,316.388,346.844,307.495z"/>
<g>
</g>
<g>
</g>
<g>
</g>
<g>
</g>
<g>
</g>
<g>
</g>
<g>
</g>
<g>
</g>
<g>
</g>
<g>
</g>
<g>
</g>
<g>
</g>
<g>
</g>
<g>
</g>
<g>
</g>
</svg>
