<svg height="512pt" viewBox="0 0 511 512" width="512pt" xmlns="http://www.w3.org/2000/svg"><path d="m97.695312 228.914062c-4.171874 0-7.554687-3.382812-7.554687-7.554687v-100.886719c0-4.171875 3.382813-7.554687 7.554687-7.554687h314.84375c4.171876 0 7.554688 3.382812 7.554688 7.554687v100.421875c0 4.171875-3.382812 7.550781-7.554688 7.550781-4.171874 0-7.554687-3.378906-7.554687-7.550781v-92.867187h-299.734375v93.332031c0 4.171875-3.382812 7.554687-7.554688 7.554687zm0 0" fill="#d0cfd1"/><path d="m207.976562 213.339844h-199.921874c-4.171876 0-7.554688 3.382812-7.554688 7.554687v283.550781c0 4.171876 3.382812 7.554688 7.554688 7.554688h199.921874c4.171876 0 7.554688-3.382812 7.554688-7.554688v-283.550781c0-4.171875-3.382812-7.554687-7.554688-7.554687zm0 0" fill="#fff4f1"/><path d="m207.976562 213.339844h-24.171874c4.171874 0 7.554687 3.382812 7.554687 7.554687v283.550781c0 4.171876-3.382813 7.554688-7.554687 7.554688h24.171874c4.171876 0 7.554688-3.382812 7.554688-7.554688v-283.550781c0-4.171875-3.382812-7.554687-7.554688-7.554687zm0 0" fill="#ecedef"/><g fill="#d0cfd1"><path d="m103.054688 249.761719h-57.546876c-4.171874 0-7.554687 3.382812-7.554687 7.554687v57.546875c0 4.171875 3.382813 7.554688 7.554687 7.554688h57.546876c4.171874 0 7.554687-3.382813 7.554687-7.554688v-57.546875c0-4.171875-3.382813-7.554687-7.554687-7.554687zm0 0"/><path d="m172.945312 401.988281h-57.546874c-4.171876 0-7.554688 3.382813-7.554688 7.554688v28.773437c0 4.171875 3.382812 7.554688 7.554688 7.554688h57.546874c4.175782 0 7.554688-3.382813 7.554688-7.554688v-28.773437c0-4.171875-3.378906-7.554688-7.554688-7.554688zm0 0"/><path d="m172.945312 352.179688h-134.433593c-4.171875 0-7.550781-3.382813-7.550781-7.554688s3.378906-7.554688 7.550781-7.554688h134.433593c4.175782 0 7.554688 3.382813 7.554688 7.554688s-3.378906 7.554688-7.554688 7.554688zm0 0"/><path d="m172.945312 387.871094h-134.433593c-4.171875 0-7.550781-3.378906-7.550781-7.554688 0-4.171875 3.378906-7.550781 7.550781-7.550781h134.433593c4.175782 0 7.554688 3.378906 7.554688 7.550781 0 4.175782-3.378906 7.554688-7.554688 7.554688zm0 0"/><path d="m172.945312 475.542969h-134.433593c-4.171875 0-7.550781-3.382813-7.550781-7.554688s3.378906-7.554687 7.550781-7.554687h134.433593c4.175782 0 7.554688 3.382812 7.554688 7.554687s-3.378906 7.554688-7.554688 7.554688zm0 0"/><path d="m89.429688 417.097656h-50.917969c-4.171875 0-7.550781-3.382812-7.550781-7.554687s3.378906-7.554688 7.550781-7.554688h50.917969c4.171874 0 7.554687 3.382813 7.554687 7.554688s-3.382813 7.554687-7.554687 7.554687zm0 0"/><path d="m169.632812 264.871094h-40.375c-4.171874 0-7.554687-3.382813-7.554687-7.554688s3.382813-7.554687 7.554687-7.554687h40.375c4.171876 0 7.554688 3.382812 7.554688 7.554687s-3.382812 7.554688-7.554688 7.554688zm0 0"/><path d="m169.632812 293.644531h-40.375c-4.171874 0-7.554687-3.382812-7.554687-7.554687s3.382813-7.554688 7.554687-7.554688h40.375c4.171876 0 7.554688 3.382813 7.554688 7.554688s-3.382812 7.554687-7.554688 7.554687zm0 0"/><path d="m169.632812 322.417969h-40.375c-4.171874 0-7.554687-3.382813-7.554687-7.554688s3.382813-7.554687 7.554687-7.554687h40.375c4.171876 0 7.554688 3.382812 7.554688 7.554687s-3.382812 7.554688-7.554688 7.554688zm0 0"/><path d="m89.429688 446.320312h-50.917969c-4.171875 0-7.550781-3.382812-7.550781-7.554687s3.378906-7.554687 7.550781-7.554687h50.917969c4.171874 0 7.554687 3.382812 7.554687 7.554687s-3.382813 7.554687-7.554687 7.554687zm0 0"/></g><path d="m504.609375 213.339844h-199.921875c-4.171875 0-7.554688 3.382812-7.554688 7.554687v283.550781c0 4.171876 3.382813 7.554688 7.554688 7.554688h199.921875c4.171875 0 7.554687-3.382812 7.554687-7.554688v-283.550781c0-4.171875-3.382812-7.554687-7.554687-7.554687zm0 0" fill="#f9cd45"/><path d="m504.609375 213.339844h-24.175781c4.171875 0 7.554687 3.382812 7.554687 7.554687v283.550781c0 4.171876-3.382812 7.554688-7.554687 7.554688h24.175781c4.171875 0 7.554687-3.382812 7.554687-7.554688v-283.550781c0-4.171875-3.382812-7.554687-7.554687-7.554687zm0 0" fill="#f8c03c"/><path d="m399.6875 249.761719h-57.546875c-4.171875 0-7.554687 3.382812-7.554687 7.554687v57.546875c0 4.171875 3.382812 7.554688 7.554687 7.554688h57.546875c4.171875 0 7.554688-3.382813 7.554688-7.554688v-57.546875c0-4.171875-3.382813-7.554687-7.554688-7.554687zm0 0" fill="#f45a3c"/><path d="m469.578125 401.988281h-57.546875c-4.171875 0-7.554688 3.382813-7.554688 7.554688v28.773437c0 4.171875 3.382813 7.554688 7.554688 7.554688h57.546875c4.171875 0 7.554687-3.382813 7.554687-7.554688v-28.773437c0-4.171875-3.382812-7.554688-7.554687-7.554688zm0 0" fill="#f45a3c"/><path d="m469.578125 352.179688h-134.433594c-4.171875 0-7.554687-3.382813-7.554687-7.554688s3.382812-7.554688 7.554687-7.554688h134.433594c4.171875 0 7.554687 3.382813 7.554687 7.554688s-3.382812 7.554688-7.554687 7.554688zm0 0" fill="#ecedef"/><path d="m469.578125 387.871094h-134.433594c-4.171875 0-7.554687-3.378906-7.554687-7.554688 0-4.171875 3.382812-7.550781 7.554687-7.550781h134.433594c4.171875 0 7.554687 3.378906 7.554687 7.550781 0 4.175782-3.382812 7.554688-7.554687 7.554688zm0 0" fill="#ecedef"/><path d="m469.578125 475.542969h-134.433594c-4.171875 0-7.554687-3.382813-7.554687-7.554688s3.382812-7.554687 7.554687-7.554687h134.433594c4.171875 0 7.554687 3.382812 7.554687 7.554687s-3.382812 7.554688-7.554687 7.554688zm0 0" fill="#ecedef"/><path d="m386.0625 417.097656h-50.917969c-4.171875 0-7.554687-3.382812-7.554687-7.554687s3.382812-7.554688 7.554687-7.554688h50.917969c4.171875 0 7.554688 3.382813 7.554688 7.554688s-3.382813 7.554687-7.554688 7.554687zm0 0" fill="#ecedef"/><path d="m466.261719 264.871094h-40.371094c-4.171875 0-7.554687-3.382813-7.554687-7.554688s3.382812-7.554687 7.554687-7.554687h40.371094c4.171875 0 7.554687 3.382812 7.554687 7.554687s-3.382812 7.554688-7.554687 7.554688zm0 0" fill="#ecedef"/><path d="m466.261719 293.644531h-40.371094c-4.171875 0-7.554687-3.382812-7.554687-7.554687s3.382812-7.554688 7.554687-7.554688h40.371094c4.171875 0 7.554687 3.382813 7.554687 7.554688s-3.382812 7.554687-7.554687 7.554687zm0 0" fill="#ecedef"/><path d="m466.261719 322.417969h-40.371094c-4.171875 0-7.554687-3.382813-7.554687-7.554688s3.382812-7.554687 7.554687-7.554687h40.371094c4.171875 0 7.554687 3.382812 7.554687 7.554687s-3.382812 7.554688-7.554687 7.554688zm0 0" fill="#ecedef"/><path d="m386.0625 446.320312h-50.917969c-4.171875 0-7.554687-3.382812-7.554687-7.554687s3.382812-7.554687 7.554687-7.554687h50.917969c4.171875 0 7.554688 3.382812 7.554688 7.554687s-3.382813 7.554687-7.554688 7.554687zm0 0" fill="#ecedef"/><path d="m336.246094 56.914062c0-.039062 0-.078124 0-.117187 0-31.320313-25.480469-56.796875-56.796875-56.796875-23.804688 0-44.53125 14.480469-52.914063 36.074219-1.210937-.179688-2.433594-.269531-3.664062-.269531-9.539063 0-17.9375 5.304687-22.105469 13.449218-29.734375.601563-53.742187 24.976563-53.742187 54.851563 0 30.253906 24.609374 54.863281 54.863281 54.863281h106.460937c30.25 0 54.863282-24.609375 54.863282-54.863281-.003907-19.347657-10.433594-37.355469-26.964844-47.191407zm0 0" fill="#4890e3"/><path d="m336.246094 56.914062c0-.039062 0-.078124 0-.117187 0-31.320313-25.480469-56.796875-56.796875-56.796875-4.160157 0-8.21875.453125-12.140625 1.296875 25.554687 5.535156 44.761718 28.3125 44.761718 55.5v.117187c16.53125 9.835938 26.964844 27.84375 26.964844 47.191407 0 30.25-24.613281 54.863281-54.863281 54.863281h24.171875c30.253906 0 54.863281-24.613281 54.863281-54.863281 0-19.347657-10.429687-37.355469-26.960937-47.191407zm0 0" fill="#2970d6"/></svg>