<?xml version="1.0" ?><svg data-name="Layer 2" id="Layer_2" viewBox="0 0 64 64" xmlns="http://www.w3.org/2000/svg"><defs><style>.cls-1{fill:#ffe94f;}.cls-2{fill:#f74b50;}.cls-3{fill:#d13f44;}.cls-4{fill:#5c3b51;}.cls-5{fill:#4a2e42;}.cls-6{fill:#2c2a3d;}</style></defs><title/><path class="cls-1" d="M53,43h0a2,2,0,0,1,2,2v7a0,0,0,0,1,0,0H51a0,0,0,0,1,0,0V45A2,2,0,0,1,53,43Z"/><polygon class="cls-2" points="47 28 47 41.86 31.97 48 17 41.86 17 28 47 28"/><polygon class="cls-3" points="47 28 47 32 31.97 37 17 32 17 28 47 28"/><path class="cls-4" d="M31.47,12.09,4,22a1.5,1.5,0,0,0-1,1.41H3a1.51,1.51,0,0,0,1,1.43l27.46,9a1.5,1.5,0,0,0,1,0l27.47-9a1.51,1.51,0,0,0,1-1.43h0A1.5,1.5,0,0,0,60,22L32.53,12.09A1.61,1.61,0,0,0,31.47,12.09Z"/><path class="cls-5" d="M60,22,32.53,12.09a1.61,1.61,0,0,0-1.06,0L4,22a1.5,1.5,0,0,0,0,2.84l.2.07,27.22-9.86a1.61,1.61,0,0,1,1.06,0L59.75,25l.21-.07a1.51,1.51,0,0,0,1-1.43h0A1.5,1.5,0,0,0,60,22Z"/><circle class="cls-6" cx="20" cy="34" r="1"/><circle class="cls-6" cx="20" cy="38" r="1"/><path class="cls-6" d="M60.34,21.1l-27.47-10a2.6,2.6,0,0,0-1.74,0h0L3.66,21.1a2.5,2.5,0,0,0,.07,4.73l12.27,4v12a1,1,0,0,0,.62.93l15,6.14a1.07,1.07,0,0,0,.76,0l15-6.14a1,1,0,0,0,.62-.93v-12l4-1.32V42.18A3,3,0,0,0,50,45v7a1,1,0,0,0,1,1h4a1,1,0,0,0,1-1V45a3,3,0,0,0-2-2.82V27.89l6.27-2.06a2.5,2.5,0,0,0,.07-4.73ZM54,51H52V45a1,1,0,0,1,2,0Zm-8-9.81L32,46.92,18,41.19V30.53l13.2,4.34a2.53,2.53,0,0,0,1.6,0L46,30.53ZM59.64,23.93,32.17,33a.5.5,0,0,1-.34,0L17.39,28.22h0l-13-4.29a.5.5,0,0,1,0-.95L31.81,13a.62.62,0,0,1,.38,0L59.66,23a.5.5,0,0,1,0,.95Z"/></svg>