<?xml version="1.0" encoding="iso-8859-1"?>
<!-- Generator: Adobe Illustrator 19.0.0, SVG Export Plug-In . SVG Version: 6.00 Build 0)  -->
<svg version="1.1" id="Capa_1" xmlns="http://www.w3.org/2000/svg" xmlns:xlink="http://www.w3.org/1999/xlink" x="0px" y="0px"
	 viewBox="0 0 512 512" style="enable-background:new 0 0 512 512;" xml:space="preserve">
<path style="fill:#A66856;" d="M243.137,473.499c-47.227,47.21-131.347,39.651-187.903-16.886
	C0.525,401.923-9.927,317.029,38.371,268.747c41.419-41.405,75.095-16.956,118.724-60.57c20.316-20.309,18.275-30.84,34.563-47.123
	c30.84-30.829,82.356-18.684,130.142,29.085s55.939,103.239,29.083,130.086c-15.804,15.799-26.522,14.387-46.948,34.807
	C260.065,398.886,284.432,432.217,243.137,473.499z"/>
<path style="fill:#8F5040;" d="M321.8,190.138c-29.766-29.756-60.979-45.686-87.741-46.02c19.02,7.151,39.064,20.683,58.491,40.103
	c47.785,47.769,55.939,103.239,29.083,130.086c-15.804,15.799-26.522,14.387-46.948,34.807
	c-43.87,43.855-19.502,77.186-60.797,118.467c-23.756,23.748-56.849,33.632-91.071,30.4c43.919,13.647,89.816,6.011,120.321-24.483
	c41.295-41.281,16.928-74.613,60.797-118.467c20.426-20.419,31.144-19.008,46.948-34.807
	C377.739,293.377,369.585,237.907,321.8,190.138z"/>
<polygon style="fill:#FFDEA9;" points="158.058,428.89 82.967,353.825 108.566,328.234 183.657,403.3 "/>
<polygon style="fill:#FFBF7B;" points="158.061,428.894 136.827,407.685 162.423,382.092 183.657,403.3 "/>
<polygon style="fill:#735458;" points="432.47,113.63 245.26,300.77 224.01,279.52 211.13,266.65 398.34,79.5 411.22,92.38 "/>
<path style="fill:#A66856;" d="M495.89,55.38l-51.51,62.66c-1.81,2.21-5.12,2.37-7.14,0.35L416.15,97.3h-0.01l-22.59-22.58
	c-2.01-2.01-1.86-5.31,0.32-7.13l62.36-51.82c1.92-1.59,4.73-1.46,6.5,0.3l11.79,11.79l21.05,21.04
	C497.33,50.66,497.47,53.46,495.89,55.38z"/>
<path style="fill:#8F5040;" d="M495.89,55.38l-51.51,62.66c-1.81,2.21-5.12,2.37-7.14,0.35L416.15,97.3
	c2.02,2.02,5.33,1.86,7.14-0.34l51.51-62.67c1.57-1.9,1.44-4.68-0.28-6.43l21.05,21.04C497.33,50.66,497.47,53.46,495.89,55.38z"/>
<circle style="fill:#5C4346;" cx="201.53" cy="310.37" r="50"/>
<path d="M15.413,356.959c-2.628-32.642,7.409-62.096,28.263-82.939c14.474-14.468,27.437-19.807,38.209-23.121
	c3.959-1.218,6.181-5.414,4.963-9.373s-5.416-6.179-9.374-4.962c-11.8,3.63-27.51,9.963-44.403,26.849
	c-24.015,24.002-35.596,57.652-32.61,94.749c2.885,35.832,18.896,71.046,45.086,99.154c1.478,1.586,3.48,2.387,5.489,2.387
	c1.831,0,3.666-0.666,5.111-2.012c3.031-2.823,3.199-7.568,0.375-10.599C32.627,421.447,18.028,389.437,15.413,356.959z"/>
<path d="M75.47,353.782c0,1.99,0.791,3.897,2.198,5.304l75.09,75.056c1.464,1.464,3.383,2.196,5.302,2.196s3.838-0.732,5.302-2.196
	l25.599-25.588c1.407-1.407,2.198-3.314,2.198-5.304s-0.791-3.897-2.198-5.304L113.87,322.89c-2.929-2.927-7.676-2.927-10.604,0
	l-25.599,25.588C76.26,349.885,75.47,351.792,75.47,353.782z M108.569,338.798l64.482,64.453l-14.991,14.984l-64.482-64.453
	L108.569,338.798z"/>
<path d="M336.924,219.719c25.254,36.471,29.031,74.802,8.654,95.16c-6.696,6.695-12.309,9.934-18.808,13.683
	c-7.769,4.482-16.574,9.562-28.141,21.122c-23.757,23.754-28.738,44.523-33.554,64.607c-4.319,18.009-8.398,35.018-27.234,53.847
	c-19.271,19.26-45.414,28.878-73.359,28.876c-28.316-0.001-58.482-9.879-85.194-29.609c-3.332-2.46-8.027-1.756-10.489,1.576
	c-2.461,3.331-1.755,8.027,1.577,10.487C99.747,501.164,133.023,512,164.479,512c31.827,0,61.792-11.093,83.965-33.254
	c21.83-21.823,26.601-41.718,31.216-60.957c4.531-18.893,8.81-36.738,29.574-57.498c10.168-10.163,17.724-14.522,25.032-18.738
	c6.797-3.921,13.825-7.976,21.917-16.066c26.092-26.067,22.389-73.313-8.5-116.521l0,0c0.037-0.035-0.036,0.036,0,0
	s-0.035,0.036,0,0l58.752-58.723c2.93-2.928,2.931-7.676,0.002-10.605c-2.929-2.93-7.677-2.93-10.606-0.002l-2.714,2.712
	l-23.523-23.52l28.744-28.731l13.211,13.205l10.314,10.313l-3.404,3.403c-2.93,2.928-2.931,7.676-0.002,10.605
	c2.928,2.929,7.677,2.93,10.606,0.002l3.436-3.435c2.249,1.986,5.153,3.101,8.158,3.101c0.199,0,0.398-0.005,0.598-0.015
	c3.466-0.169,6.719-1.803,8.922-4.484l3.241-3.943l8.239,8.238c1.464,1.464,3.384,2.197,5.303,2.197s3.839-0.732,5.303-2.197
	c2.929-2.928,2.929-7.677,0-10.605l-9.275-9.274l7.366-8.96l10.073,10.072c1.464,1.464,3.384,2.197,5.303,2.197
	s3.839-0.732,5.303-2.197c2.929-2.928,2.929-7.677,0-10.605l-11.109-11.108l7.361-8.955l11.912,11.911
	c1.464,1.465,3.384,2.197,5.303,2.197s3.839-0.732,5.303-2.197c2.929-2.928,2.929-7.676,0-10.605L496.855,66.01l4.829-5.875
	c4.047-4.924,3.699-12.035-0.809-16.54L468.03,10.764c-4.533-4.531-11.667-4.858-16.596-0.762l-5.798,4.818L433.002,2.195
	c-2.93-2.927-7.679-2.927-10.606,0.003c-2.928,2.929-2.927,7.677,0.003,10.605l11.652,11.645l-8.911,7.405l-10.908-10.9
	c-2.93-2.929-7.679-2.927-10.606,0.003c-2.928,2.929-2.927,7.678,0.003,10.605l9.926,9.919l-8.909,7.403l-9.173-9.171
	c-2.929-2.929-7.678-2.928-10.606,0c-2.929,2.929-2.929,7.677,0,10.605l8.194,8.193l-3.98,3.308c-2.66,2.21-4.276,5.459-4.434,8.912
	c-0.147,3.209,0.988,6.346,3.109,8.736l-84.564,84.527c-44.288-33.128-88.643-36.443-116.833-8.265
	c-8.423,8.421-12.445,15.573-16.336,22.488c-4.051,7.201-8.24,14.648-18.234,24.636c-16.201,16.195-30.665,21.994-42.678,25.532
	c-3.974,1.17-6.246,5.339-5.076,9.312c0.962,3.266,3.95,5.383,7.191,5.383c0.702,0,1.415-0.099,2.122-0.308
	c13.825-4.071,30.464-10.736,49.045-29.311c11.452-11.445,16.367-20.182,20.703-27.89c3.704-6.585,6.903-12.271,13.867-19.235
	c11.615-11.608,26.461-16.405,44.131-14.252c16.094,1.96,33.725,9.754,51.374,22.63l-79.332,79.297
	c-3.778-0.77-7.66-1.171-11.605-1.171c-15.359,0-29.798,5.98-40.658,16.839c-10.86,10.859-16.842,25.296-16.842,40.654
	c0,15.357,5.981,29.795,16.842,40.653c10.86,10.859,25.3,16.84,40.658,16.84s29.798-5.981,40.658-16.84s16.841-25.296,16.841-40.653
	c0-3.939-0.4-7.816-1.168-11.59L336.924,219.719 M302.558,232.861l-23.52-23.518l19.577-19.569l23.521,23.518L302.558,232.861z
	 M332.744,202.69l-23.521-23.518l19.577-19.568l23.522,23.519L332.744,202.69z M231.583,340.378
	c-8.027,8.026-18.7,12.447-30.052,12.447s-22.025-4.42-30.052-12.447s-12.448-18.697-12.448-30.048s4.421-22.022,12.448-30.049
	s18.7-12.446,30.052-12.446c4.002,0,7.916,0.561,11.663,1.624c0.121,0.038,0.244,0.07,0.367,0.101
	c6.739,1.978,12.917,5.617,18.022,10.721c5.099,5.099,8.736,11.267,10.716,17.996c0.035,0.14,0.072,0.28,0.115,0.418
	c1.058,3.738,1.616,7.643,1.616,11.635C244.031,321.681,239.611,332.352,231.583,340.378z M242.19,269.677
	c-4.04-4.04-8.578-7.402-13.472-10.035l39.712-39.695l23.52,23.517l-39.716,39.696C249.599,278.261,246.234,273.72,242.19,269.677z
	 M382.508,152.951l-19.578,19.568L339.408,149l19.577-19.568L382.508,152.951z M440.46,110.993L440.46,110.993l-39.534-39.517
	c-0.02-0.02,0.02,0.02,0,0l0,0l0,0c0.016-0.013,0,0,0.016-0.013l58.207-48.369l29.406,29.393l0,0c-0.016,0.019,0.016-0.02,0,0
	l-48.043,58.441C440.509,110.931,440.463,110.99,440.46,110.993l0.052-0.065C440.457,110.992,440.511,110.928,440.46,110.993
	L440.46,110.993z"/>
<g>
</g>
<g>
</g>
<g>
</g>
<g>
</g>
<g>
</g>
<g>
</g>
<g>
</g>
<g>
</g>
<g>
</g>
<g>
</g>
<g>
</g>
<g>
</g>
<g>
</g>
<g>
</g>
<g>
</g>
</svg>
