<svg height="512pt" viewBox="-58 0 512 512" width="512pt" xmlns="http://www.w3.org/2000/svg"><path d="m319.410156 353.527344h-243.570312c-22.675782 0-41.125 18.449218-41.125 41.125v109.820312c0 4.15625 3.367187 7.527344 7.527344 7.527344h310.765624c4.160157 0 7.527344-3.371094 7.527344-7.527344v-109.820312c0-22.675782-18.449218-41.125-41.125-41.125zm0 0" fill="#fff4f1"/><path d="m353.382812 170.816406c-4.15625 0-7.527343-3.371094-7.527343-7.527344 0-81.734374-66.496094-148.234374-148.230469-148.234374s-148.230469 66.5-148.230469 148.234374c0 4.15625-3.371093 7.527344-7.527343 7.527344-4.160157 0-7.53125-3.371094-7.53125-7.527344 0-90.039062 73.253906-163.289062 163.289062-163.289062s163.289062 73.25 163.289062 163.289062c0 4.15625-3.371093 7.527344-7.53125 7.527344zm0 0" fill="#d0cfd1"/><path d="m319.410156 353.527344h-24.089844c22.675782 0 41.125 18.449218 41.125 41.125v109.820312c0 4.15625-3.371093 7.527344-7.527343 7.527344h24.089843c4.160157 0 7.527344-3.371094 7.527344-7.527344v-109.820312c0-22.675782-18.449218-41.125-41.125-41.125zm0 0" fill="#ecedef"/><path d="m290.839844 457.984375h-186.429688c-4.160156 0-7.53125-3.371094-7.53125-7.53125 0-4.15625 3.371094-7.527344 7.53125-7.527344h186.429688c4.160156 0 7.53125 3.371094 7.53125 7.527344 0 4.160156-3.371094 7.53125-7.53125 7.53125zm0 0" fill="#d0cfd1"/><path d="m360.535156 408.726562v-14.074218c0-22.675782-18.449218-41.125-41.125-41.125h-243.570312c-22.675782 0-41.125 18.449218-41.125 41.125v14.074218zm0 0" fill="#d0cfd1"/><path d="m345.554688 362.929688c-1.523438-1.257813-3.136719-2.40625-4.835938-3.441407-1.128906-.6875-2.292969-1.320312-3.492188-1.898437-5.394531-2.605469-11.4375-4.0625-17.816406-4.0625h-24.089844c22.679688 0 41.125 18.449218 41.125 41.125v14.074218h24.089844v-14.074218c0-12.753906-5.835937-24.171875-14.980468-31.722656zm0 0" fill="#c4c3c4"/><path d="m67.960938 153.109375-.671876-.007813c-37.105468 0-67.289062 30.183594-67.289062 67.289063 0 37.101563 30.1875 67.289063 67.289062 67.289063l.671876-.007813c4.128906-.042969 7.453124-3.398437 7.453124-7.53125v-119.503906c0-4.128907-3.324218-7.488281-7.453124-7.527344zm0 0" fill="#2970d6"/><path d="m107.925781 136.679688h-40.039062c-4.15625 0-7.527344 3.371093-7.527344 7.53125v151.792968c0 4.15625 3.371094 7.527344 7.527344 7.527344h40.039062c4.160157 0 7.53125-3.371094 7.53125-7.527344v-151.792968c0-4.160157-3.371093-7.53125-7.53125-7.53125zm0 0" fill="#4890e3"/><path d="m327.960938 153.101562-.671876.007813c-4.128906.039063-7.453124 3.398437-7.453124 7.527344v119.507812c0 4.128907 3.324218 7.484375 7.453124 7.527344l.671876.007813c37.105468 0 67.289062-30.1875 67.289062-67.289063s-30.183594-67.289063-67.289062-67.289063zm0 0" fill="#4890e3"/><path d="m327.960938 153.101562-.671876.007813c-2.054687.019531-3.914062.863281-5.257812 2.214844 28.820312 7.605469 50.132812 33.890625 50.132812 65.066406s-21.3125 57.460937-50.132812 65.0625c1.34375 1.351563 3.203125 2.199219 5.257812 2.21875l.671876.007813c37.105468 0 67.289062-30.1875 67.289062-67.289063 0-37.105469-30.183594-67.289063-67.289062-67.289063zm0 0" fill="#2970d6"/><path d="m327.363281 136.679688h-40.039062c-4.160157 0-7.53125 3.371093-7.53125 7.53125v151.792968c0 4.15625 3.371093 7.527344 7.53125 7.527344h40.039062c4.15625 0 7.527344-3.371094 7.527344-7.527344v-151.792968c0-4.160157-3.371094-7.53125-7.527344-7.53125zm0 0" fill="#4890e3"/><path d="m327.363281 136.679688h-23.085937c4.15625 0 7.527344 3.371093 7.527344 7.53125v151.792968c0 4.15625-3.371094 7.527344-7.527344 7.527344h23.085937c4.15625 0 7.527344-3.371094 7.527344-7.527344v-151.792968c0-4.160157-3.371094-7.53125-7.527344-7.53125zm0 0" fill="#2970d6"/><g fill="#d0cfd1"><path d="m246.300781 260.640625c-4.160156 0-7.53125-3.371094-7.53125-7.527344 0-22.6875-18.457031-41.144531-41.144531-41.144531s-41.144531 18.457031-41.144531 41.144531c0 4.15625-3.371094 7.527344-7.53125 7.527344-4.15625 0-7.527344-3.371094-7.527344-7.527344 0-30.992187 25.214844-56.203125 56.203125-56.203125 30.992188 0 56.203125 25.210938 56.203125 56.203125 0 4.15625-3.371094 7.527344-7.527344 7.527344zm0 0"/><path d="m219.25 260.335938c-4.160156 0-7.53125-3.371094-7.53125-7.527344 0-7.773438-6.320312-14.09375-14.09375-14.09375s-14.09375 6.320312-14.09375 14.09375c0 4.15625-3.371094 7.527344-7.527344 7.527344-4.160156 0-7.53125-3.371094-7.53125-7.527344 0-16.074219 13.078125-29.152344 29.152344-29.152344s29.152344 13.078125 29.152344 29.152344c0 4.15625-3.371094 7.527344-7.527344 7.527344zm0 0"/></g></svg>