<?xml version="1.0" encoding="iso-8859-1"?>
<!-- Generator: Adobe Illustrator 19.0.0, SVG Export Plug-In . SVG Version: 6.00 Build 0)  -->
<svg version="1.1" id="Layer_1" xmlns="http://www.w3.org/2000/svg" xmlns:xlink="http://www.w3.org/1999/xlink" x="0px" y="0px"
	 viewBox="0 0 512.002 512.002" style="enable-background:new 0 0 512.002 512.002;" xml:space="preserve">
<path style="fill:#F7B239;" d="M33.258,117.704v307.602h350.524V117.704H33.258z M91.383,203.55
	c-13.831,0-25.038-11.22-25.038-25.038c0-13.831,11.208-25.038,25.038-25.038s25.038,11.208,25.038,25.038
	C116.421,192.331,105.213,203.55,91.383,203.55z M287.206,373.441H129.834V257.192c0-28.758,15.416-53.904,38.452-67.627
	c11.768-7.023,25.527-11.053,40.228-11.053s28.472,4.03,40.24,11.053c23.023,13.723,38.452,38.869,38.452,67.627V373.441z
	 M325.658,203.55c-13.831,0-25.038-11.22-25.038-25.038c0-13.831,11.208-25.038,25.038-25.038c13.831,0,25.038,11.208,25.038,25.038
	C350.696,192.331,339.488,203.55,325.658,203.55z"/>
<rect x="33.258" y="117.704" style="fill:#E09B2D;" width="29.593" height="307.602"/>
<path style="fill:#F95428;" d="M208.514,178.512c-14.701,0-28.46,4.03-40.228,11.053c-23.035,13.723-38.452,38.869-38.452,67.627
	v116.249h38.452h40.228h40.24h38.452V257.192c0-28.758-15.428-53.904-38.452-67.627
	C236.986,182.542,223.215,178.512,208.514,178.512z"/>
<path style="fill:#E54728;" d="M208.517,228.898c-10.901,0-21.104,2.988-29.83,8.196c-17.081,10.176-28.513,28.821-28.513,50.147
	v86.201h28.513h29.83h29.839h28.513v-86.201c0-21.324-11.44-39.971-28.513-50.147C229.629,231.887,219.418,228.898,208.517,228.898z
	"/>
<g>
	<polygon style="fill:#B27214;" points="408.093,216.952 408.093,262.557 383.782,262.557 383.782,171.358 408.093,171.358 	"/>
	<path style="fill:#B27214;" d="M325.658,153.473c13.831,0,25.038,11.208,25.038,25.038c0,13.819-11.208,25.038-25.038,25.038
		c-13.831,0-25.038-11.22-25.038-25.038C300.619,164.681,311.827,153.473,325.658,153.473z"/>
	<path style="fill:#B27214;" d="M91.383,153.473c13.831,0,25.038,11.208,25.038,25.038c0,13.819-11.208,25.038-25.038,25.038
		s-25.038-11.22-25.038-25.038C66.344,164.681,77.552,153.473,91.383,153.473z"/>
	<polygon style="fill:#B27214;" points="408.093,86.109 408.093,117.704 383.782,117.704 33.258,117.704 8.947,117.704 
		8.947,86.109 29.049,86.109 387.991,86.109 	"/>
</g>
<rect x="33.258" y="117.704" style="fill:#E09B2D;" width="350.524" height="17.885"/>
<polygon style="fill:#995C0D;" points="48.543,86.109 48.543,117.704 46.132,117.704 11.359,117.704 8.947,117.704 8.947,86.109 
	10.942,86.109 46.55,86.109 "/>
<rect x="29.049" y="54.513" style="fill:#B27214;" width="358.942" height="31.596"/>
<rect x="29.049" y="54.513" style="fill:#995C0D;" width="32.252" height="31.596"/>
<g>
	<rect x="296.418" y="425.306" style="fill:#B27214;" width="58.47" height="32.18"/>
	<rect x="62.143" y="425.306" style="fill:#B27214;" width="58.47" height="32.18"/>
</g>
<g>
	<path style="fill:#FFFFFF;" d="M357.349,403.57c-4.94,0-8.942-4.004-8.942-8.942V251.552c0-4.939,4.003-8.942,8.942-8.942
		s8.942,4.004,8.942,8.942v143.076C366.291,399.567,362.289,403.57,357.349,403.57z"/>
	<circle style="fill:#FFFFFF;" cx="357.344" cy="225.321" r="8.942"/>
</g>
<g>
	<path style="fill:#333333;" d="M208.519,169.566c-48.319,0-87.63,39.31-87.63,87.63V373.44c0,4.939,4.004,8.942,8.942,8.942
		h157.376c4.94,0,8.942-4.004,8.942-8.942V257.196C296.15,208.876,256.839,169.566,208.519,169.566z M199.577,364.496h-22.353
		V194.894c6.881-3.471,14.409-5.829,22.353-6.852V364.496z M217.461,188.043c7.945,1.022,15.472,3.381,22.354,6.852v169.602h-22.354
		V188.043z M138.774,257.195c0-19.285,7.87-36.766,20.566-49.404v156.705h-20.566C138.774,364.496,138.774,257.195,138.774,257.195z
		 M278.265,364.496h-20.566V207.791c12.696,12.638,20.566,30.117,20.566,49.404L278.265,364.496L278.265,364.496z"/>
	<path style="fill:#333333;" d="M503.058,60.475H477.59c-18.003,0-32.648,14.646-32.648,32.649v100.128
		c0,8.141-6.623,14.764-14.764,14.764h-13.14v-36.662c0-4.939-4.003-8.942-8.942-8.942H392.72v-35.767h15.376
		c4.94,0,8.942-4.004,8.942-8.942V86.107c0-4.939-4.003-8.942-8.942-8.942h-11.16V54.51c0-4.939-4.003-8.942-8.942-8.942H29.044
		c-4.939,0-8.942,4.004-8.942,8.942v22.655H8.942C4.004,77.165,0,81.169,0,86.107v31.596c0,4.939,4.004,8.942,8.942,8.942h15.376
		v298.656c0,4.939,4.004,8.942,8.942,8.942h19.942v23.249c0,4.939,4.004,8.942,8.942,8.942h58.474c4.939,0,8.942-4.004,8.942-8.942
		v-23.249h157.917v23.249c0,4.939,4.003,8.942,8.942,8.942h58.474c4.94,0,8.942-4.004,8.942-8.942v-23.249h19.944
		c4.94,0,8.942-4.004,8.942-8.942V271.503h15.376c4.94,0,8.942-4.004,8.942-8.942V225.9h13.14c18.003,0,32.649-14.646,32.649-32.649
		V93.124c0-8.141,6.623-14.764,14.763-14.764h25.468c4.94,0,8.942-4.004,8.942-8.942C512.002,64.479,507.997,60.475,503.058,60.475z
		 M37.987,63.452h341.066v13.713H37.987V63.452z M17.885,95.05h381.27v13.711H17.885V95.05z M111.677,448.55H71.087v-14.306h40.589
		V448.55z M345.952,448.55h-40.589v-14.306h40.589V448.55z M374.837,416.359H42.203V126.646h332.635v289.713H374.837z
		 M399.155,253.618h-6.434v-73.323h6.434V253.618z"/>
	<path style="fill:#333333;" d="M91.381,144.529c-18.736,0-33.979,15.244-33.979,33.979s15.242,33.979,33.979,33.979
		s33.979-15.244,33.979-33.979S110.117,144.529,91.381,144.529z M91.381,194.603c-8.874,0-16.095-7.221-16.095-16.095
		s7.219-16.095,16.095-16.095s16.095,7.221,16.095,16.095S100.256,194.603,91.381,194.603z"/>
	<path style="fill:#333333;" d="M325.657,144.529c-18.737,0-33.979,15.244-33.979,33.979s15.242,33.979,33.979,33.979
		s33.979-15.244,33.979-33.979S344.394,144.529,325.657,144.529z M325.657,194.603c-8.874,0-16.095-7.221-16.095-16.095
		s7.221-16.095,16.095-16.095c8.874,0,16.095,7.221,16.095,16.095S334.532,194.603,325.657,194.603z"/>
</g>
<g>
</g>
<g>
</g>
<g>
</g>
<g>
</g>
<g>
</g>
<g>
</g>
<g>
</g>
<g>
</g>
<g>
</g>
<g>
</g>
<g>
</g>
<g>
</g>
<g>
</g>
<g>
</g>
<g>
</g>
</svg>
