<svg height="512pt" viewBox="0 -2 512 511" width="512pt" xmlns="http://www.w3.org/2000/svg"><g fill="#d0cfd1"><path d="m255.660156 327.019531c-4.15625 0-7.523437-3.367187-7.523437-7.523437v-94.472656c0-4.15625 3.367187-7.523438 7.523437-7.523438s7.523438 3.367188 7.523438 7.523438v94.472656c0 4.15625-3.367188 7.523437-7.523438 7.523437zm0 0"/><path d="m464.140625 418.261719h-54.933594c-4.152343 0-7.519531-3.367188-7.519531-7.523438 0-4.152343 3.367188-7.519531 7.519531-7.519531h47.410157v-229.628906h-401.914063v229.628906h47.40625c4.15625 0 7.523437 3.367188 7.523437 7.519531 0 4.15625-3.367187 7.523438-7.523437 7.523438h-54.929687c-4.152344 0-7.523438-3.367188-7.523438-7.523438v-244.671875c0-4.152344 3.371094-7.519531 7.523438-7.519531h416.960937c4.152344 0 7.519531 3.367187 7.519531 7.519531v244.671875c0 4.15625-3.367187 7.523438-7.519531 7.523438zm0 0"/><path d="m409.207031 313.160156h-307.097656c-4.152344 0-7.519531 3.371094-7.519531 7.523438v180.207031c0 4.152344 3.367187 7.519531 7.519531 7.519531h307.097656c4.15625 0 7.523438-3.367187 7.523438-7.519531v-180.207031c0-4.152344-3.367188-7.523438-7.523438-7.523438zm0 0"/></g><path d="m409.207031 313.160156h-24.070312c4.152343 0 7.523437 3.371094 7.523437 7.523438v180.207031c0 4.152344-3.371094 7.519531-7.523437 7.519531h24.070312c4.15625 0 7.523438-3.367187 7.523438-7.519531v-180.207031c0-4.152344-3.367188-7.523438-7.523438-7.523438zm0 0" fill="#a2a2a2"/><path d="m94.589844 409.363281v91.527344c0 4.152344 3.367187 7.519531 7.519531 7.519531h307.097656c4.15625 0 7.523438-3.367187 7.523438-7.519531v-91.527344zm0 0" fill="#9c9b9d"/><path d="m392.660156 500.890625c0 4.152344-3.371094 7.519531-7.523437 7.519531h24.070312c4.15625 0 7.523438-3.367187 7.523438-7.519531v-91.527344h-24.070313zm0 0" fill="#838383"/><path d="m116.726562.5h-97.429687c-10.640625 0-19.296875 8.65625-19.296875 19.296875v190.339844c0 10.640625 8.65625 19.296875 19.296875 19.296875h97.429687c10.640626 0 19.296876-8.65625 19.296876-19.296875v-190.339844c0-10.640625-8.65625-19.296875-19.296876-19.296875zm0 0" fill="#fff4f1"/><path d="m116.726562.5h-23.070312c10.640625 0 19.296875 8.65625 19.296875 19.296875v190.339844c0 10.640625-8.65625 19.296875-19.296875 19.296875h23.070312c10.640626 0 19.296876-8.65625 19.296876-19.296875v-190.339844c0-10.640625-8.65625-19.296875-19.296876-19.296875zm0 0" fill="#ecedef"/><path d="m136.023438 45.765625v-25.96875c0-10.640625-8.65625-19.296875-19.296876-19.296875h-97.429687c-10.640625 0-19.296875 8.65625-19.296875 19.296875v25.96875zm0 0" fill="#f9cd45"/><path d="m116.726562.5h-23.070312c10.640625 0 19.296875 8.65625 19.296875 19.296875v25.96875h23.070313v-25.96875c0-10.640625-8.65625-19.296875-19.296876-19.296875zm0 0" fill="#f8c03c"/><path d="m0 184.167969v25.96875c0 10.640625 8.65625 19.296875 19.296875 19.296875h97.429687c10.640626 0 19.296876-8.65625 19.296876-19.296875v-25.96875zm0 0" fill="#f9cd45"/><path d="m112.953125 210.136719c0 10.640625-8.65625 19.296875-19.296875 19.296875h23.070312c10.640626 0 19.296876-8.65625 19.296876-19.296875v-25.96875h-23.070313zm0 0" fill="#f8c03c"/><path d="m304.375.5h-97.429688c-10.640624 0-19.296874 8.65625-19.296874 19.296875v190.339844c0 10.640625 8.65625 19.296875 19.296874 19.296875h97.429688c10.640625 0 19.296875-8.65625 19.296875-19.296875v-190.339844c0-10.640625-8.65625-19.296875-19.296875-19.296875zm0 0" fill="#fff4f1"/><path d="m304.375.5h-23.070312c10.640624 0 19.296874 8.65625 19.296874 19.296875v190.339844c0 10.640625-8.65625 19.296875-19.296874 19.296875h23.070312c10.640625 0 19.296875-8.65625 19.296875-19.296875v-190.339844c0-10.640625-8.65625-19.296875-19.296875-19.296875zm0 0" fill="#ecedef"/><path d="m323.671875 45.765625v-25.96875c0-10.640625-8.65625-19.296875-19.296875-19.296875h-97.429688c-10.640624 0-19.296874 8.65625-19.296874 19.296875v25.96875zm0 0" fill="#4890e3"/><path d="m304.375.5h-23.070312c10.640624 0 19.296874 8.65625 19.296874 19.296875v25.96875h23.070313v-25.96875c0-10.640625-8.65625-19.296875-19.296875-19.296875zm0 0" fill="#2970d6"/><path d="m187.648438 184.167969v25.96875c0 10.640625 8.65625 19.296875 19.296874 19.296875h97.429688c10.640625 0 19.296875-8.65625 19.296875-19.296875v-25.96875zm0 0" fill="#4890e3"/><path d="m300.601562 210.136719c0 10.640625-8.65625 19.296875-19.296874 19.296875h23.070312c10.640625 0 19.296875-8.65625 19.296875-19.296875v-25.96875h-23.070313zm0 0" fill="#2970d6"/><path d="m492.703125.5h-97.429687c-10.640626 0-19.296876 8.65625-19.296876 19.296875v190.339844c0 10.640625 8.65625 19.296875 19.296876 19.296875h97.429687c10.640625 0 19.296875-8.65625 19.296875-19.296875v-190.339844c0-10.640625-8.65625-19.296875-19.296875-19.296875zm0 0" fill="#fff4f1"/><path d="m492.703125.5h-23.070313c10.640626 0 19.296876 8.65625 19.296876 19.296875v190.339844c0 10.640625-8.65625 19.296875-19.296876 19.296875h23.070313c10.640625 0 19.296875-8.65625 19.296875-19.296875v-190.339844c0-10.640625-8.65625-19.296875-19.296875-19.296875zm0 0" fill="#ecedef"/><path d="m512 45.765625v-25.96875c0-10.640625-8.65625-19.296875-19.296875-19.296875h-97.429687c-10.640626 0-19.296876 8.65625-19.296876 19.296875v25.96875zm0 0" fill="#f45a3c"/><path d="m492.703125.5h-23.070313c10.640626 0 19.296876 8.65625 19.296876 19.296875v25.96875h23.070312v-25.96875c0-10.640625-8.65625-19.296875-19.296875-19.296875zm0 0" fill="#e24a2a"/><path d="m375.976562 184.167969v25.96875c0 10.640625 8.65625 19.296875 19.296876 19.296875h97.429687c10.640625 0 19.296875-8.65625 19.296875-19.296875v-25.96875zm0 0" fill="#f45a3c"/><path d="m488.929688 210.136719c0 10.640625-8.65625 19.296875-19.296876 19.296875h23.070313c10.640625 0 19.296875-8.65625 19.296875-19.296875v-25.96875h-23.070312zm0 0" fill="#e24a2a"/><path d="m47.179688 280.308594c-17.375 0-31.507813 14.132812-31.507813 31.507812s14.132813 31.511719 31.507813 31.511719 31.511718-14.136719 31.511718-31.511719c0-17.371094-14.136718-31.507812-31.511718-31.507812zm0 0" fill="#91bcee"/><path d="m464.140625 280.308594c-17.375 0-31.511719 14.132812-31.511719 31.507812s14.132813 31.511719 31.511719 31.511719c17.375 0 31.507813-14.136719 31.507813-31.511719 0-17.371094-14.132813-31.507812-31.507813-31.507812zm0 0" fill="#91bcee"/><path d="m47.179688 280.308594c-4.257813 0-8.324219.855468-12.035157 2.394531 11.417969 4.738281 19.472657 16 19.472657 29.113281 0 13.113282-8.054688 24.378906-19.472657 29.117188 3.710938 1.539062 7.777344 2.394531 12.035157 2.394531 17.375 0 31.511718-14.136719 31.511718-31.511719 0-17.371094-14.136718-31.507812-31.511718-31.507812zm0 0" fill="#4890e3"/><path d="m464.140625 280.308594c-4.261719 0-8.328125.855468-12.039063 2.394531 11.421876 4.738281 19.476563 16 19.476563 29.113281 0 13.113282-8.054687 24.378906-19.476563 29.117188 3.710938 1.539062 7.777344 2.394531 12.039063 2.394531 17.375 0 31.507813-14.136719 31.507813-31.511719 0-17.371094-14.132813-31.507812-31.507813-31.507812zm0 0" fill="#4890e3"/><path d="m372.613281 339.695312h-19.550781c-9.125 0-16.550781 7.425782-16.550781 16.550782v19.554687c0 9.125 7.425781 16.546875 16.550781 16.546875h19.550781c9.125 0 16.550781-7.421875 16.550781-16.546875v-19.554687c0-9.125-7.425781-16.550782-16.550781-16.550782zm0 0" fill="#fff4f1"/><path d="m372.613281 339.695312h-19.550781c-.769531 0-1.519531.074219-2.261719.175782 8.058594 1.105468 14.289063 8.019531 14.289063 16.375v19.554687c0 8.355469-6.230469 15.269531-14.289063 16.375.742188.101563 1.492188.171875 2.261719.171875h19.550781c9.125 0 16.550781-7.421875 16.550781-16.546875v-19.554687c0-9.125-7.425781-16.550782-16.550781-16.550782zm0 0" fill="#ecedef"/><path d="m299.625 339.695312h-19.554688c-9.125 0-16.550781 7.425782-16.550781 16.550782v19.554687c0 9.125 7.425781 16.546875 16.550781 16.546875h19.554688c9.125 0 16.546875-7.421875 16.546875-16.546875v-19.554687c0-9.125-7.421875-16.550782-16.546875-16.550782zm0 0" fill="#fff4f1"/><path d="m299.625 339.695312h-19.554688c-.769531 0-1.519531.074219-2.261718.175782 8.058594 1.105468 14.289062 8.019531 14.289062 16.375v19.554687c0 8.355469-6.230468 15.269531-14.289062 16.375.742187.101563 1.492187.171875 2.261718.171875h19.554688c9.125 0 16.546875-7.421875 16.546875-16.546875v-19.554687c0-9.125-7.421875-16.550782-16.546875-16.550782zm0 0" fill="#ecedef"/><path d="m226.632812 339.695312h-19.550781c-9.125 0-16.550781 7.425782-16.550781 16.550782v19.554687c0 9.125 7.425781 16.546875 16.550781 16.546875h19.550781c9.125 0 16.550782-7.421875 16.550782-16.546875v-19.554687c0-9.125-7.425782-16.550782-16.550782-16.550782zm0 0" fill="#fff4f1"/><path d="m226.632812 339.695312h-19.550781c-.769531 0-1.519531.074219-2.261719.175782 8.058594 1.105468 14.289063 8.019531 14.289063 16.375v19.554687c0 8.355469-6.230469 15.269531-14.289063 16.375.742188.101563 1.492188.171875 2.261719.171875h19.550781c9.125 0 16.550782-7.421875 16.550782-16.546875v-19.554687c0-9.125-7.425782-16.550782-16.550782-16.550782zm0 0" fill="#ecedef"/><path d="m153.640625 339.695312h-19.550781c-9.125 0-16.550782 7.425782-16.550782 16.550782v19.554687c0 9.125 7.425782 16.546875 16.550782 16.546875h19.550781c9.128906 0 16.550781-7.421875 16.550781-16.546875v-19.554687c0-9.125-7.421875-16.550782-16.550781-16.550782zm0 0" fill="#fff4f1"/><path d="m153.640625 339.695312h-19.550781c-.769532 0-1.519532.074219-2.261719.175782 8.058594 1.105468 14.289063 8.019531 14.289063 16.375v19.554687c0 8.355469-6.230469 15.269531-14.289063 16.375.742187.101563 1.492187.171875 2.261719.171875h19.550781c9.128906 0 16.550781-7.421875 16.550781-16.546875v-19.554687c0-9.125-7.421875-16.550782-16.550781-16.550782zm0 0" fill="#ecedef"/><path d="m372.613281 427.089844h-19.550781c-9.125 0-16.550781 7.425781-16.550781 16.550781v19.554687c0 9.125 7.425781 16.546876 16.550781 16.546876h19.550781c9.125 0 16.550781-7.421876 16.550781-16.546876v-19.554687c0-9.125-7.425781-16.550781-16.550781-16.550781zm0 0" fill="#fff4f1"/><path d="m372.613281 427.089844h-19.550781c-.769531 0-1.519531.074218-2.261719.175781 8.058594 1.105469 14.289063 8.019531 14.289063 16.375v19.554687c0 8.355469-6.230469 15.269532-14.289063 16.375.742188.101563 1.492188.171876 2.261719.171876h19.550781c9.125 0 16.550781-7.421876 16.550781-16.546876v-19.554687c0-9.125-7.425781-16.550781-16.550781-16.550781zm0 0" fill="#ecedef"/><path d="m299.625 427.089844h-19.554688c-9.125 0-16.550781 7.425781-16.550781 16.550781v19.554687c0 9.125 7.425781 16.546876 16.550781 16.546876h19.554688c9.125 0 16.546875-7.421876 16.546875-16.546876v-19.554687c0-9.125-7.421875-16.550781-16.546875-16.550781zm0 0" fill="#fff4f1"/><path d="m299.625 427.089844h-19.554688c-.769531 0-1.519531.074218-2.261718.175781 8.058594 1.105469 14.289062 8.019531 14.289062 16.375v19.554687c0 8.355469-6.230468 15.269532-14.289062 16.375.742187.101563 1.492187.171876 2.261718.171876h19.554688c9.125 0 16.546875-7.421876 16.546875-16.546876v-19.554687c0-9.125-7.421875-16.550781-16.546875-16.550781zm0 0" fill="#ecedef"/><path d="m226.632812 427.089844h-19.550781c-9.125 0-16.550781 7.425781-16.550781 16.550781v19.554687c0 9.125 7.425781 16.546876 16.550781 16.546876h19.550781c9.125 0 16.550782-7.421876 16.550782-16.546876v-19.554687c0-9.125-7.425782-16.550781-16.550782-16.550781zm0 0" fill="#fff4f1"/><path d="m226.632812 427.089844h-19.550781c-.769531 0-1.519531.074218-2.261719.175781 8.058594 1.105469 14.289063 8.019531 14.289063 16.375v19.554687c0 8.355469-6.230469 15.269532-14.289063 16.375.742188.101563 1.492188.171876 2.261719.171876h19.550781c9.125 0 16.550782-7.421876 16.550782-16.546876v-19.554687c0-9.125-7.425782-16.550781-16.550782-16.550781zm0 0" fill="#ecedef"/><path d="m153.640625 427.089844h-19.550781c-9.125 0-16.550782 7.425781-16.550782 16.550781v19.554687c0 9.125 7.425782 16.546876 16.550782 16.546876h19.550781c9.128906 0 16.550781-7.421876 16.550781-16.546876v-19.554687c0-9.125-7.421875-16.550781-16.550781-16.550781zm0 0" fill="#fff4f1"/><path d="m153.640625 427.089844h-19.550781c-.769532 0-1.519532.074218-2.261719.175781 8.058594 1.105469 14.289063 8.019531 14.289063 16.375v19.554687c0 8.355469-6.230469 15.269532-14.289063 16.375.742187.101563 1.492187.171876 2.261719.171876h19.550781c9.128906 0 16.550781-7.421876 16.550781-16.546876v-19.554687c0-9.125-7.421875-16.550781-16.550781-16.550781zm0 0" fill="#ecedef"/></svg>