<?xml version="1.0" ?><!DOCTYPE svg  PUBLIC '-//W3C//DTD SVG 1.0//EN'  'http://www.w3.org/TR/2001/REC-SVG-20010904/DTD/svg10.dtd'><svg enable-background="new 0 0 512 512" id="Layer_1" version="1.0" viewBox="0 0 512 512" xml:space="preserve" xmlns="http://www.w3.org/2000/svg" xmlns:xlink="http://www.w3.org/1999/xlink"><g><g><g><path d="M91.9,224.7v270.7h106.4V224.7H91.9z M162.8,418c0,3.6-2.9,6.4-6.4,6.4h-22.6c-0.2,0-0.3,0-0.5,0h0     c0,0,0,0,0,0c-0.2,0-0.4,0-0.6-0.1c-0.2,0-0.4-0.1-0.5-0.1c0,0-0.1,0-0.1,0c-0.1,0-0.3-0.1-0.4-0.1c-0.1,0-0.2,0-0.2-0.1     c-0.1,0-0.2-0.1-0.3-0.2c-0.1,0-0.1-0.1-0.2-0.1c-0.1-0.1-0.3-0.1-0.4-0.2c-0.1,0-0.1-0.1-0.2-0.1c-0.1-0.1-0.2-0.1-0.3-0.2     c0,0-0.1-0.1-0.2-0.1c-0.1-0.1-0.2-0.2-0.3-0.3c0,0-0.1,0-0.1-0.1c-0.1-0.1-0.2-0.2-0.3-0.3c0,0,0,0,0,0     c-0.1-0.1-0.3-0.3-0.4-0.4c-0.1-0.1-0.2-0.3-0.3-0.4c0,0,0-0.1-0.1-0.1c-0.1-0.1-0.2-0.3-0.2-0.4c-0.1-0.2-0.2-0.5-0.3-0.7     c0-0.1-0.1-0.3-0.1-0.4c0-0.2-0.1-0.4-0.1-0.6c0,0,0,0,0,0c-0.1-0.4-0.1-0.8-0.1-1.2v-40.3c0-0.2,0-0.4,0-0.6c0,0,0,0,0,0     c0-0.2,0-0.4,0.1-0.6v0c0-0.2,0.1-0.4,0.1-0.5c0-0.1,0.1-0.2,0.1-0.3c0-0.1,0.1-0.2,0.1-0.3c0.1-0.2,0.2-0.5,0.3-0.7     c0.1-0.1,0.2-0.3,0.2-0.4c0.1-0.2,0.2-0.3,0.3-0.4c0.1-0.1,0.2-0.2,0.3-0.3c0,0,0.1-0.1,0.1-0.1c0.1-0.1,0.2-0.2,0.3-0.3     c0,0,0.1-0.1,0.1-0.1c0.1-0.1,0.2-0.2,0.3-0.3c0,0,0.1-0.1,0.2-0.1c0.1-0.1,0.2-0.1,0.3-0.2c0.1,0,0.1-0.1,0.2-0.1     c0.1-0.1,0.3-0.1,0.4-0.2c0.1,0,0.1-0.1,0.2-0.1c0.1,0,0.2-0.1,0.3-0.1c0.1,0,0.2-0.1,0.2-0.1c0.1,0,0.3-0.1,0.4-0.1     c0,0,0.1,0,0.1,0c0.2-0.1,0.4-0.1,0.5-0.1c0.2,0,0.4,0,0.6-0.1c0,0,0,0,0,0h0c0.2,0,0.3,0,0.5,0h22.6c3.5,0,6.4,2.9,6.4,6.4V418z      M162.8,311.6c0,3.5-2.9,6.4-6.4,6.4h-22.6c-0.2,0-0.3,0-0.5,0h0c0,0,0,0,0,0c-0.2,0-0.4,0-0.6-0.1c-0.2,0-0.4-0.1-0.5-0.1     c0,0-0.1,0-0.1,0c-0.1,0-0.3-0.1-0.4-0.1c-0.1,0-0.2-0.1-0.2-0.1c-0.1,0-0.2-0.1-0.3-0.2c-0.1,0-0.1,0-0.2-0.1     c-0.1-0.1-0.3-0.1-0.4-0.2c-0.1,0-0.1-0.1-0.2-0.1c-0.1-0.1-0.2-0.1-0.3-0.2c0,0-0.1-0.1-0.2-0.1c-0.1-0.1-0.2-0.2-0.3-0.3     c0,0-0.1,0-0.1-0.1c-0.1-0.1-0.2-0.2-0.3-0.3c0,0-0.1-0.1-0.1-0.1c-0.1-0.1-0.2-0.2-0.3-0.3c-0.1-0.1-0.2-0.3-0.3-0.4     c-0.1-0.1-0.2-0.3-0.2-0.4c-0.1-0.2-0.2-0.5-0.3-0.7c0-0.1-0.1-0.2-0.1-0.3c-0.1-0.3-0.2-0.6-0.2-0.9c0,0,0,0,0,0     c-0.1-0.4-0.1-0.8-0.1-1.2v-40.4c0-0.2,0-0.4,0-0.6c0,0,0,0,0,0c0-0.2,0-0.4,0.1-0.6v0c0-0.2,0.1-0.4,0.1-0.5     c0-0.1,0.1-0.2,0.1-0.3c0-0.1,0.1-0.2,0.1-0.3c0.1-0.2,0.2-0.5,0.3-0.7c0.1-0.1,0.2-0.3,0.2-0.4c0.1-0.2,0.2-0.3,0.3-0.4     c0.1-0.1,0.2-0.2,0.3-0.3c0,0,0.1-0.1,0.1-0.1c0.1-0.1,0.2-0.2,0.3-0.3c0,0,0.1-0.1,0.1-0.1c0.1-0.1,0.2-0.2,0.3-0.3     c0,0,0.1-0.1,0.2-0.1c0.1-0.1,0.2-0.1,0.3-0.2c0.1,0,0.1-0.1,0.2-0.1c0.1-0.1,0.3-0.1,0.4-0.2c0.1,0,0.1-0.1,0.2-0.1     c0.1-0.1,0.2-0.1,0.3-0.1c0.1,0,0.2-0.1,0.2-0.1c0.1,0,0.3-0.1,0.4-0.1c0,0,0.1,0,0.1,0c0.2,0,0.4-0.1,0.5-0.1     c0.2,0,0.4-0.1,0.6-0.1c0,0,0,0,0,0h0c0.2,0,0.3,0,0.5,0h22.6c3.5,0,6.4,2.9,6.4,6.4V311.6z" fill="#C1272D"/><g><path d="M155.3,311.6c0.1-1.3,2-1.1-0.3-1.1c-1.7,0-3.4,0-5.1,0c-4.6,0-9.1,0-13.7,0c-0.8,0-1.7,0-2.5,0c-0.2,0-0.3,0-0.5,0      c1.9,0-0.8-0.6,1.6,0.4c-2.1-0.9,0.6,0.8-0.4-0.2c0.7,0.7,0.2,0.1,0.5,1c-0.6-1.6-0.9-3-2.2-4.2c0.7,1.8,1.5,3.5,2.2,5.3      c-1-11.2-0.1-22.7-0.1-33.9c0-2.2,0-4.4,0-6.6c0-0.4,0-0.7,0-1.1c0-0.2,0-0.4,0-0.6c-0.3,2-0.2,1.8,0.1-0.6      c0,1.9,0.2,0.8-0.3,1.9c0.6-1.2-1.2,1.1,0.2-0.1c-2.2,2,1.7-0.4-1.2,0.7c1.4-0.5-1.4,0,0.1-0.1c0.6,0,1.2,0,1.9,0      c6.3,0,12.6,0,18.9,0c0.6,0,1.2,0,1.8,0c-0.6,0-1-1.5-1-0.8c0,1.9,0,3.9,0,5.8C155.3,288.8,155.3,300.2,155.3,311.6      c0,9.7,15,9.7,15,0c0-12.3,0-24.6,0-36.9c0-9.2-3.9-16.4-13.9-17.4c-6.1-0.6-12.6,0-18.7,0c-4.1,0-8.1-0.1-11.6,2.3      c-2.7,1.9-4.5,4.3-5.6,7.4c-0.3,0.9-0.5,2-0.5,2.9c0-2.9-0.1-0.5-0.1,0.7c0,0.6,0,1.1,0,1.7c0,12.8,0,25.7,0,38.5      c0,0.3,0,0.5,0,0.8c0.1,1.1,0.2,2.2,0.4,3.2c0.3,0.6,0.5,1.2,0.8,1.8c1.7,2.3,1.6,2-0.5-0.9c0.6,2.4,2.2,4.7,4.1,6.3      c3.1,2.6,6.5,3.5,10.5,3.5c6,0,12.1,0,18.1,0c9.2,0,16.1-4.1,17.1-13.9c0.4-4.1-3.7-7.5-7.5-7.5      C158.4,304.1,155.7,307.6,155.3,311.6z"/><path d="M155.3,418c0.1-1.3,2-1.1-0.3-1.1c-1.7,0-3.4,0-5.1,0c-4.6,0-9.1,0-13.7,0c-0.8,0-1.7,0-2.5,0c-0.2,0-0.3,0-0.5,0      c1.9,0-0.8-0.6,1.6,0.5c-1.9-0.8,0,0.2,0.7,1.2c-1.3-1.7-1.6-2-0.7-0.9c-0.1-0.2-0.2-0.4-0.3-0.5c1.4,2.3-1.3-2.7-0.6-1.7      c0.3,1.3,0.7,2.5,1,3.8c-1-11.2-0.1-22.7-0.1-33.9c0-2.2,0-4.4,0-6.6c0-0.4,0-0.7,0-1.1c0-0.2,0-0.4,0-0.6      c-0.3,2-0.2,1.8,0.1-0.6c0,1.9,0.2,0.8-0.3,1.9c0.5-1.1-1.2,1,0.2-0.1c-2.4,1.9,1.8-0.3-1.2,0.7c1.4-0.5-1.4,0,0.1-0.1      c0.6,0,1.2,0,1.9,0c6.3,0,12.6,0,18.9,0c0.6,0,1.2,0,1.8,0c-0.6,0-1-1.4-1-0.8c0,1.9,0,3.9,0,5.8      C155.3,395.2,155.3,406.6,155.3,418c0,9.7,15,9.7,15,0c0-12.3,0-24.6,0-36.9c0-9.2-3.9-16.4-13.9-17.4c-6.1-0.6-12.6,0-18.7,0      c-4,0-8.2-0.2-11.6,2.4c-2.7,2-4.5,4.2-5.6,7.4c-0.3,0.9-0.5,2-0.5,2.8c0-2.9-0.1-0.5-0.1,0.7c0,0.6,0,1.2,0,1.7      c0,12.8,0,25.7,0,38.5c0,0.3,0,0.5,0,0.8c0.1,1.1,0.2,2.2,0.4,3.2c0.3,0.6,0.5,1.2,0.8,1.8c-0.6-1.4-0.8-1.6-0.5-0.8      c0.4,1.2,0.9,2.4,1.7,3.5c3.3,4.6-2.5-2,1.6,2c0.3,0.3,0.5,0.5,0.8,0.7c3.1,2.6,6.5,3.5,10.5,3.5c6,0,12.1,0,18.1,0      c9.2,0,16.1-4.1,17.1-13.9c0.4-4.1-3.7-7.5-7.5-7.5C158.4,410.5,155.7,414,155.3,418z"/><path d="M84.4,224.7c0,44.1,0,88.2,0,132.3c0,46.1,0,92.1,0,138.2c0,0.1,0,0.1,0,0.2c0,4.1,3.4,7.5,7.5,7.5      c35.5,0,70.9,0,106.4,0c4.1,0,7.5-3.4,7.5-7.5c0-44.1,0-88.2,0-132.3c0-46.1,0-92.1,0-138.2c0-0.1,0-0.1,0-0.2      c0-4.1-3.4-7.5-7.5-7.5c-35.5,0-70.9,0-106.4,0c-9.7,0-9.7,15,0,15c35.5,0,70.9,0,106.4,0c-2.5-2.5-5-5-7.5-7.5      c0,44.1,0,88.2,0,132.3c0,46.1,0,92.1,0,138.2c0,0.1,0,0.1,0,0.2c2.5-2.5,5-5,7.5-7.5c-35.5,0-70.9,0-106.4,0      c2.5,2.5,5,5,7.5,7.5c0-44.1,0-88.2,0-132.3c0-46.1,0-92.1,0-138.2c0-0.1,0-0.1,0-0.2C99.4,215,84.4,215,84.4,224.7z"/></g></g><g><path d="M441.1,224.7H179.3l84-84l33.4-28.6l3.8-3.3c1.2-1,2.7-1.5,4.2-1.5c1.5,0,3,0.5,4.2,1.5l3.8,3.3     l33.3,28.6l84.3,74.5c0,0,0,0,0,0l1.5,1.3L441.1,224.7z" fill="#6FCCDD"/><g><path d="M441.1,217.2c-44.8,0-89.6,0-134.4,0c-42.5,0-84.9,0-127.4,0c1.8,4.3,3.5,8.5,5.3,12.8c16.4-16.4,32.9-32.9,49.3-49.3      c14-14,27.6-28.6,42.6-41.5c9.3-8,18.7-16,28-24c1.1-1,1.4-0.6,0.1-0.4c-0.9,0.1-1.3-0.8,0.1,0.4c0.9,0.8,1.8,1.5,2.7,2.3      c1.3,1.1,2.6,2.2,3.8,3.3c5.8,4.9,11.5,9.9,17.3,14.8c15.4,13.2,30.6,26.7,45.8,40.1c13.6,12,27.2,24.1,40.8,36.1      c3.2,2.8,6.4,5.6,9.5,8.4c0.6,0.5,1.1,0.9,1.8,1.4c-2.9-2.2,0.4,0.5,1.1,1.1c2.7,2.4,5.4,4.8,8.2,7.2      c7.2,6.4,17.9-4.2,10.6-10.6c-2.1-1.9-4.3-3.8-6.4-5.7c-0.9-0.8-1.8-1.6-2.8-2.4c-0.8-0.7-5.1-4.5-1.6-1.4      c-1.8-1.6-3.6-3.2-5.4-4.7c-10.1-9-20.3-17.9-30.4-26.9c-16.5-14.6-32.8-29.4-49.5-43.7c-10.2-8.7-20.4-17.5-30.6-26.2      c-5-4.3-11.1-10.8-18.5-8.1c-5.2,1.9-9.1,5.9-13.2,9.5c-9.9,8.5-19.9,17-29.8,25.5c-5.1,4.4-9.7,9.7-14.5,14.5      c-23.2,23.2-46.4,46.4-69.6,69.6c-4.6,4.6-1.2,12.8,5.3,12.8c44.8,0,89.6,0,134.4,0c42.5,0,84.9,0,127.4,0      C450.7,232.2,450.7,217.2,441.1,217.2z"/></g></g><g><path d="M263.3,140.8l-84,84H91.9l-2.2,4.7c-5.7,0-8.6-6.9-4.5-11l75.8-75.8c1.2-1.2,2.8-1.9,4.5-1.9H263.3z" fill="#2EBDBC"/><g><path d="M258,135.4c-28,28-56,56-84,84c1.8-0.7,3.5-1.5,5.3-2.2c-29.1,0-58.3,0-87.4,0c-2.5,0-5.4,1.4-6.5,3.7      c-0.7,1.6-1.5,3.1-2.2,4.7c2.2-1.2,4.3-2.5,6.5-3.7c1.9,0.2,0.2,2.4,1.2,1.4c0.9-0.9,1.9-1.9,2.8-2.8c3.7-3.7,7.5-7.5,11.2-11.2      c11.2-11.2,22.4-22.4,33.6-33.6c8.6-8.6,17.1-17.1,25.7-25.7c0.7-0.7,1.3-1.3,2-2c0,0-1.2,0.2,0.2,0.2c3.9,0,7.8,0,11.7,0      c28.4,0,56.8,0,85.3,0c9.7,0,9.7-15,0-15c-24.7,0-49.5,0-74.2,0c-5.9,0-11.8,0-17.7,0c-3.5,0-7-0.3-10.4,0.8      c-3.7,1.1-6.3,4.2-8.9,6.9c-3.8,3.8-7.7,7.7-11.5,11.5c-15.3,15.3-30.5,30.5-45.8,45.8c-4.6,4.6-9.2,9.2-13.8,13.8      c-9.2,9.2-4.9,23.8,8.6,25c2.4,0.2,5.4-1.5,6.5-3.7c0.7-1.6,1.5-3.1,2.2-4.7c-2.2,1.2-4.3,2.5-6.5,3.7c24.8,0,49.7,0,74.5,0      c4.1,0,8.1,0,12.2,0c3.4,0,5.5-1.7,7.7-3.9c7.8-7.8,15.7-15.7,23.5-23.5c19.6-19.6,39.2-39.2,58.8-58.8      C275.4,139.2,264.8,128.6,258,135.4z"/></g></g><g><path d="M386.7,59.8c2.8,4.3-0.2,10-5.3,10h-76.7V16.6h76.7c5.1,0,8.2,5.7,5.3,10l-8.7,13c-1.4,2.2-1.4,5,0,7.1     L386.7,59.8z" fill="#69BD45"/><g><path d="M380.2,63.6c-0.7-1.4,2.7-1.3-0.5-1.3c-2.6,0-5.1,0-7.7,0c-8.8,0-17.7,0-26.5,0c-13.6,0-27.2,0-40.8,0      c2.5,2.5,5,5,7.5,7.5c0-17.7,0-35.5,0-53.2c-2.5,2.5-5,5-7.5,7.5c22,0,44,0,66,0c3.4,0,6.8,0,10.3,0c0.9,0-0.9-1-0.9-1      c-1.6,2.4-3.1,4.7-4.7,7.1c-4.2,6.3-8.7,13.1-3.6,20.7C374.5,55.1,377.3,59.4,380.2,63.6c5.3,8,18.3,0.5,13-7.6      c-2.9-4.3-5.8-8.7-8.7-13c0.1,0.2-0.2,0.6,0.3-0.2c0.8-1.2,1.6-2.4,2.4-3.6c1.9-2.8,3.7-5.6,5.6-8.4c6.5-9.7-0.7-20.8-11.4-21.8      c-2.6-0.2-5.4,0-8,0c-22.9,0-45.8,0-68.7,0c-4.1,0-7.5,3.4-7.5,7.5c0,17.7,0,35.5,0,53.2c0,4.1,3.4,7.5,7.5,7.5      c15.9,0,31.8,0,47.7,0c8.6,0,17.2,0,25.8,0c2.6,0,5,0,7.5-0.7c8.9-2.6,11.5-13.1,7.4-20.6C388.5,47.5,375.6,55.1,380.2,63.6z"/></g></g><g><g><path d="M386.7,67.3c9.7,0,9.7-15,0-15S377,67.3,386.7,67.3L386.7,67.3z"/></g></g><g><path d="M198.3,224.7v270.7h44.3V379.3h124.1v116.1H411V224.7H198.3z M304.7,351.8c-29.7,0-53.9-24.1-53.9-53.9     c0-29.7,24.1-53.9,53.9-53.9c29.7,0,53.9,24.1,53.9,53.9C358.5,327.7,334.4,351.8,304.7,351.8z" fill="#EC2127"/><g><path d="M304.7,344.3c-21.8-0.3-40.1-15.1-45.2-36.2c-5.2-21.3,6.6-42.7,25.7-52.2c19-9.4,43.5-3,56.2,13.6      c13.2,17.2,12.7,41.8-1.3,58.4C331.2,338.4,318.3,344.1,304.7,344.3c-9.7,0.1-9.7,15.1,0,15c23.2-0.3,44.6-13.3,55-34.2      c10.6-21.2,7.5-47.3-7.3-65.7c-14.8-18.4-38.9-26.2-61.8-21.2c-22.4,4.9-40.2,23.6-45.6,45.6c-9.3,38.3,21,75,59.7,75.5      C314.3,359.4,314.3,344.4,304.7,344.3z"/><path d="M190.8,224.7c0,44.1,0,88.2,0,132.3c0,46.1,0,92.1,0,138.2c0,0.1,0,0.1,0,0.2c0,4.1,3.4,7.5,7.5,7.5      c14.8,0,29.5,0,44.3,0c4.1,0,7.5-3.4,7.5-7.5c0-38.7,0-77.4,0-116.1c-2.5,2.5-5,5-7.5,7.5c41.4,0,82.7,0,124.1,0      c-2.5-2.5-5-5-7.5-7.5c0,38.7,0,77.4,0,116.1c0,4.1,3.4,7.5,7.5,7.5c14.8,0,29.5,0,44.3,0c4.1,0,7.5-3.4,7.5-7.5      c0-44.1,0-88.2,0-132.3c0-46.1,0-92.1,0-138.2c0-0.1,0-0.1,0-0.2c0-4.1-3.4-7.5-7.5-7.5c-48.5,0-97,0-145.4,0      c-22.4,0-44.9,0-67.3,0c-9.7,0-9.7,15,0,15c48.5,0,97,0,145.4,0c22.4,0,44.9,0,67.3,0c-2.5-2.5-5-5-7.5-7.5      c0,44.1,0,88.2,0,132.3c0,46.1,0,92.1,0,138.2c0,0.1,0,0.1,0,0.2c2.5-2.5,5-5,7.5-7.5c-14.8,0-29.5,0-44.3,0      c2.5,2.5,5,5,7.5,7.5c0-38.7,0-77.4,0-116.1c0-4.1-3.4-7.5-7.5-7.5c-41.4,0-82.7,0-124.1,0c-4.1,0-7.5,3.4-7.5,7.5      c0,38.7,0,77.4,0,116.1c2.5-2.5,5-5,7.5-7.5c-14.8,0-29.5,0-44.3,0c2.5,2.5,5,5,7.5,7.5c0-44.1,0-88.2,0-132.3      c0-46.1,0-92.1,0-138.2c0-0.1,0-0.1,0-0.2C205.8,215,190.8,215,190.8,224.7z"/></g></g><g><path d="M162.8,271.3v40.4c0,3.5-2.9,6.4-6.4,6.4h-22.6c-0.2,0-0.3,0-0.5,0h0c0,0,0,0,0,0c-0.2,0-0.4,0-0.6-0.1     c-0.2,0-0.4-0.1-0.5-0.1c0,0-0.1,0-0.1,0c-0.1,0-0.3-0.1-0.4-0.1c-0.1,0-0.2-0.1-0.2-0.1c-0.1,0-0.2-0.1-0.3-0.2     c-0.1,0-0.1,0-0.2-0.1c-0.1-0.1-0.3-0.1-0.4-0.2c-0.1,0-0.1-0.1-0.2-0.1c-0.1-0.1-0.2-0.1-0.3-0.2c0,0-0.1-0.1-0.2-0.1     c-0.1-0.1-0.2-0.2-0.3-0.3c0,0-0.1,0-0.1-0.1c-0.1-0.1-0.2-0.2-0.3-0.3c0,0-0.1-0.1-0.1-0.1c-0.1-0.1-0.2-0.2-0.3-0.3     c-0.1-0.1-0.2-0.3-0.3-0.4c-0.1-0.1-0.2-0.3-0.2-0.4c-0.1-0.2-0.2-0.5-0.3-0.7c0-0.1-0.1-0.2-0.1-0.3c-0.1-0.3-0.2-0.6-0.2-0.9     c0,0,0,0,0,0c-0.1-0.4-0.1-0.8-0.1-1.2v-40.4c0-0.2,0-0.4,0-0.6c0,0,0,0,0,0c0-0.2,0-0.4,0.1-0.6v0c0-0.2,0.1-0.4,0.1-0.5     c0-0.1,0.1-0.2,0.1-0.3c0-0.1,0.1-0.2,0.1-0.3c0.1-0.2,0.2-0.5,0.3-0.7c0.1-0.1,0.2-0.3,0.2-0.4c0.1-0.2,0.2-0.3,0.3-0.4     c0.1-0.1,0.2-0.2,0.3-0.3c0,0,0.1-0.1,0.1-0.1c0.1-0.1,0.2-0.2,0.3-0.3c0,0,0.1-0.1,0.1-0.1c0.1-0.1,0.2-0.2,0.3-0.3     c0,0,0.1-0.1,0.2-0.1c0.1-0.1,0.2-0.1,0.3-0.2c0.1,0,0.1-0.1,0.2-0.1c0.1-0.1,0.3-0.1,0.4-0.2c0.1,0,0.1-0.1,0.2-0.1     c0.1-0.1,0.2-0.1,0.3-0.1c0.1,0,0.2-0.1,0.2-0.1c0.1,0,0.3-0.1,0.4-0.1c0,0,0.1,0,0.1,0c0.2,0,0.4-0.1,0.5-0.1     c0.2,0,0.4-0.1,0.6-0.1c0,0,0,0,0,0h0c0.2,0,0.3,0,0.5,0h22.6C159.9,264.9,162.8,267.7,162.8,271.3z" fill="#FBB03B"/><g><path d="M155.3,271.3c0,13.4,0,26.8,0,40.2c0-0.4,1.7-1,0.6-1c-1.7,0-3.4,0-5.1,0c-4.6,0-9.3,0-13.9,0c-1,0-2.1,0-3.1,0      c-0.2,0-0.4,0-0.5,0c1.9,0-0.8-0.6,1.6,0.4c-2.1-0.9,0.6,0.8-0.4-0.2c0.7,0.7,0.2,0.1,0.5,1c-0.6-1.6-0.9-3-2.2-4.2      c0.7,1.8,1.5,3.5,2.2,5.3c-1.2-13.6-0.1-27.8-0.1-41.5c0-0.3,0-0.5,0-0.8c-0.3,2-0.2,1.8,0.1-0.6c-0.3,1.5-0.3,1.9,0,1.1      c-0.4,1.2-0.2,0.8-0.8,1.2c1.2-0.9-0.3,0-0.9,0.1c0.6-0.1,1.2,0,1.8,0c4.3,0,8.6,0,12.9,0c2.2,0,4.3,0,6.5,0      C157.2,272.4,155.5,272.8,155.3,271.3c0.4,4.1,3.1,7.5,7.5,7.5c3.8,0,7.9-3.4,7.5-7.5c-0.7-6.7-4.1-11.5-10.6-13.5      c-2.7-0.8-6.1-0.4-8.9-0.4c-5.8,0-11.7,0-17.5,0c-5.7,0-10.8,4.2-12.7,9.4c-0.1,0.4-0.3,0.8-0.4,1.2c-1.3,5.3-0.4-2.8-0.4,2.6      c0,0.4,0,0.8,0,1.1c0,2.4,0,4.8,0,7.2c0,7.8,0,15.6,0,23.4c0,2.6,0,5.2,0,7.8c0,0.5,0,1,0,1.4c0,0.6,0.3,3,0.4,3.3      c0.4,1.3,1,2.4,1.9,3.3c-1.5-2.6-2-3.3-1.5-2.1c4.4,12.5,20,9.4,30.2,9.4c7.2,0,14-0.4,18-7.6c2.3-4.2,1.5-10.1,1.5-14.8      c0-10.6,0-21.3,0-31.9C170.3,261.6,155.3,261.6,155.3,271.3z"/></g></g><g><path d="M162.8,377.7V418c0,3.6-2.9,6.4-6.4,6.4h-22.6c-0.2,0-0.3,0-0.5,0h0c0,0,0,0,0,0c-0.2,0-0.4,0-0.6-0.1     c-0.2,0-0.4-0.1-0.5-0.1c0,0-0.1,0-0.1,0c-0.1,0-0.3-0.1-0.4-0.1c-0.1,0-0.2,0-0.2-0.1c-0.1,0-0.2-0.1-0.3-0.2     c-0.1,0-0.1-0.1-0.2-0.1c-0.1-0.1-0.3-0.1-0.4-0.2c-0.1,0-0.1-0.1-0.2-0.1c-0.1-0.1-0.2-0.1-0.3-0.2c0,0-0.1-0.1-0.2-0.1     c-0.1-0.1-0.2-0.2-0.3-0.3c0,0-0.1,0-0.1-0.1c-0.1-0.1-0.2-0.2-0.3-0.3c0,0,0,0,0,0c-0.1-0.1-0.3-0.3-0.4-0.4     c-0.1-0.1-0.2-0.3-0.3-0.4c0,0,0-0.1-0.1-0.1c-0.1-0.1-0.2-0.3-0.2-0.4c-0.1-0.2-0.2-0.5-0.3-0.7c0-0.1-0.1-0.3-0.1-0.4     c0-0.2-0.1-0.4-0.1-0.6c0,0,0,0,0,0c-0.1-0.4-0.1-0.8-0.1-1.2v-40.3c0-0.2,0-0.4,0-0.6c0,0,0,0,0,0c0-0.2,0-0.4,0.1-0.6v0     c0-0.2,0.1-0.4,0.1-0.5c0-0.1,0.1-0.2,0.1-0.3c0-0.1,0.1-0.2,0.1-0.3c0.1-0.2,0.2-0.5,0.3-0.7c0.1-0.1,0.2-0.3,0.2-0.4     c0.1-0.2,0.2-0.3,0.3-0.4c0.1-0.1,0.2-0.2,0.3-0.3c0,0,0.1-0.1,0.1-0.1c0.1-0.1,0.2-0.2,0.3-0.3c0,0,0.1-0.1,0.1-0.1     c0.1-0.1,0.2-0.2,0.3-0.3c0,0,0.1-0.1,0.2-0.1c0.1-0.1,0.2-0.1,0.3-0.2c0.1,0,0.1-0.1,0.2-0.1c0.1-0.1,0.3-0.1,0.4-0.2     c0.1,0,0.1-0.1,0.2-0.1c0.1,0,0.2-0.1,0.3-0.1c0.1,0,0.2-0.1,0.2-0.1c0.1,0,0.3-0.1,0.4-0.1c0,0,0.1,0,0.1,0     c0.2-0.1,0.4-0.1,0.5-0.1c0.2,0,0.4,0,0.6-0.1c0,0,0,0,0,0h0c0.2,0,0.3,0,0.5,0h22.6C159.9,371.3,162.8,374.1,162.8,377.7z" fill="#FBB03B"/><g><path d="M155.3,377.7c0,13.4,0,26.8,0,40.2c0-0.4,1.7-0.9,0.6-0.9c-1.7,0-3.4,0-5.1,0c-4.6,0-9.3,0-13.9,0c-1,0-2.1,0-3.1,0      c-0.2,0-0.4,0-0.5,0c1.9,0-0.8-0.6,1.6,0.5c-1.9-0.8,0,0.2,0.7,1.2c-1.3-1.7-1.6-2-0.7-0.9c-0.1-0.2-0.2-0.4-0.3-0.5      c1.4,2.3-1.3-2.7-0.6-1.7c0.3,1.3,0.7,2.5,1,3.8c-1.2-13.6-0.1-27.8-0.1-41.5c0-0.3,0-0.5,0-0.8c-0.3,2-0.2,1.8,0.1-0.6      c-0.3,1.5-0.3,1.9,0,1.1c-0.4,1.2-0.2,0.8-0.8,1.2c1.2-0.8-0.3,0-0.9,0c0.6-0.1,1.2,0,1.8,0c4.3,0,8.6,0,12.9,0      c2.2,0,4.3,0,6.5,0C157.2,378.8,155.5,379.1,155.3,377.7c0.4,4.1,3.1,7.5,7.5,7.5c3.8,0,7.9-3.4,7.5-7.5      c-0.7-6.7-4.1-11.5-10.6-13.5c-2.6-0.8-6.1-0.4-8.9-0.4c-5.8,0-11.7,0-17.5,0c-5.7,0-10.8,4.2-12.7,9.4      c-0.1,0.4-0.3,0.8-0.4,1.2c-1.3,5.3-0.4-2.8-0.4,2.6c0,0.4,0,0.8,0,1.2c0,2.4,0,4.8,0,7.2c0,7.8,0,15.6,0,23.4      c0,2.6,0,5.2,0,7.8c0,0.5,0,1,0,1.4c0,0.6,0.3,3,0.4,3.3c1.4,4.9-1.3-2.5,1,2.8c0.4,0.8,3.3,5.1,1.3,2.2      c1.1,1.6,2.1,2.4,3.6,3.5c1.9,1.4,4.7,2.2,7,2.2c5.8,0,11.7,0,17.5,0c7.2,0,14.1-0.4,18-7.6c2.3-4.2,1.5-10.1,1.5-14.8      c0-10.6,0-21.3,0-31.9C170.3,368,155.3,368,155.3,377.7z"/></g></g><g><g><path d="M207.7,487.9c-3.1,0-6.3,0-9.4,0c-4.1,0-7.5,3.4-7.5,7.5c0,4.1,3.4,7.5,7.5,7.5c3.1,0,6.3,0,9.4,0      c4.1,0,7.5-3.4,7.5-7.5C215.2,491.3,211.8,487.9,207.7,487.9L207.7,487.9z"/></g></g><g><rect fill="#998675" height="116.1" width="54" x="242.6" y="379.3"/><g><path d="M289.1,379.3c0,38.7,0,77.4,0,116.1c2.5-2.5,5-5,7.5-7.5c-18,0-36,0-54,0c2.5,2.5,5,5,7.5,7.5c0-38.7,0-77.4,0-116.1      c-2.5,2.5-5,5-7.5,7.5c18,0,36,0,54,0c9.7,0,9.7-15,0-15c-18,0-36,0-54,0c-4.1,0-7.5,3.4-7.5,7.5c0,38.7,0,77.4,0,116.1      c0,4.1,3.4,7.5,7.5,7.5c18,0,36,0,54,0c4.1,0,7.5-3.4,7.5-7.5c0-38.7,0-77.4,0-116.1C304.1,369.6,289.1,369.6,289.1,379.3z"/></g></g><g><rect fill="#736357" height="116.1" width="70.1" x="296.6" y="379.3"/><g><path d="M359.2,379.3c0,38.7,0,77.4,0,116.1c2.5-2.5,5-5,7.5-7.5c-23.4,0-46.7,0-70.1,0c2.5,2.5,5,5,7.5,7.5      c0-38.7,0-77.4,0-116.1c-2.5,2.5-5,5-7.5,7.5c23.4,0,46.7,0,70.1,0c9.7,0,9.7-15,0-15c-23.4,0-46.7,0-70.1,0      c-4.1,0-7.5,3.4-7.5,7.5c0,38.7,0,77.4,0,116.1c0,4.1,3.4,7.5,7.5,7.5c23.4,0,46.7,0,70.1,0c4.1,0,7.5-3.4,7.5-7.5      c0-38.7,0-77.4,0-116.1C374.2,369.6,359.2,369.6,359.2,379.3z"/></g></g></g><g><g><path d="M312.2,16.6C312.2,16.6,312.2,16.6,312.2,16.6c0-4.1-3.4-7.5-7.5-7.5s-7.5,3.4-7.5,7.5c0,0,0,0,0,0     c0,4.1,3.4,7.5,7.5,7.5S312.2,20.7,312.2,16.6L312.2,16.6z"/></g></g><g><g><path d="M297.2,69.8c0,12.5,0,25,0,37.5c0,9.7,15,9.7,15,0c0-12.5,0-25,0-37.5C312.2,60.1,297.2,60.1,297.2,69.8L297.2,69.8z"/></g></g></g><g><path d="M358.5,298c0,29.7-24.1,53.9-53.9,53.9c-29.7,0-53.9-24.1-53.9-53.9c0-29.7,24.1-53.9,53.9-53.9   C334.4,244.1,358.5,268.2,358.5,298z" fill="#FBB03B"/><g><path d="M351,298c-0.3,21.8-15.1,40.1-36.2,45.2c-21.3,5.2-42.7-6.6-52.2-25.7c-9.4-19-3-43.5,13.6-56.2    c17.2-13.2,41.8-12.7,58.4,1.3C345.1,271.4,350.8,284.3,351,298c0.1,9.7,15.1,9.7,15,0c-0.3-23.2-13.3-44.6-34.2-55    c-21.2-10.6-47.3-7.5-65.7,7.3c-18.4,14.8-26.2,38.9-21.2,61.8c4.9,22.4,23.6,40.2,45.6,45.6c38.3,9.3,75-21,75.5-59.7    C366.1,288.3,351.1,288.3,351,298z"/></g></g><g><g><path d="M312.2,298c0-11,0-22.1,0-33.1c0-9.7-15-9.7-15,0c0,11,0,22.1,0,33.1C297.2,307.6,312.2,307.6,312.2,298L312.2,298z"/></g></g><g><g><path d="M299.4,303.3c4.1,4.1,8.1,8.1,12.2,12.2c2.9,2.9,7.7,2.9,10.6,0s2.9-7.7,0-10.6c-4.1-4.1-8.1-8.1-12.2-12.2    c-2.9-2.9-7.7-2.9-10.6,0C296.5,295.5,296.5,300.4,299.4,303.3L299.4,303.3z"/></g></g></svg>