<?xml version="1.0" encoding="iso-8859-1"?>
<!-- Generator: Adobe Illustrator 19.0.0, SVG Export Plug-In . SVG Version: 6.00 Build 0)  -->
<svg version="1.1" id="Layer_1" xmlns="http://www.w3.org/2000/svg" xmlns:xlink="http://www.w3.org/1999/xlink" x="0px" y="0px"
	 viewBox="0 0 512 512" style="enable-background:new 0 0 512 512;" xml:space="preserve">
<polygon style="fill:#F95428;" points="479.624,236.649 476.081,262.126 448.17,462.643 63.837,462.643 35.926,262.126 
	32.383,236.649 "/>
<polygon style="fill:#E54728;" points="479.624,236.649 476.081,262.126 35.926,262.126 32.383,236.649 "/>
<rect x="11.581" y="196.766" style="fill:#666666;" width="488.838" height="39.885"/>
<circle style="fill:#F95428;" cx="255.999" cy="82.755" r="33.398"/>
<g>
	<circle style="fill:#F9A493;" cx="443.604" cy="282.948" r="11.581"/>
	<circle style="fill:#F9A493;" cx="260.632" cy="79.863" r="11.581"/>
</g>
<g>
	<path style="fill:#FFFFFF;" d="M127.211,373.844h-3.602c-4.668,0-8.468-3.798-8.468-8.467c0-6.396-5.186-11.581-11.581-11.581
		c-6.395,0-11.581,5.185-11.581,11.581c0,17.44,14.188,31.628,31.629,31.628h3.602c19.425,0,35.229-15.804,35.229-35.229
		c0-19.425-15.803-35.229-35.229-35.229c-6.655,0-12.069-5.414-12.069-12.068c0-6.654,5.414-12.068,12.069-12.068h3.6
		c4.668,0,8.468,3.798,8.468,8.467c0,6.396,5.186,11.581,11.581,11.581s11.581-5.185,11.581-11.581
		c0-17.44-14.188-31.628-31.629-31.628h-3.6c-19.425,0-35.23,15.804-35.23,35.229c0,19.425,15.804,35.229,35.23,35.229
		c6.654,0,12.068,5.414,12.068,12.068C139.279,368.43,133.865,373.844,127.211,373.844z"/>
	<path style="fill:#FFFFFF;" d="M280.249,397.005h47.298c6.395,0,11.581-5.185,11.581-11.581v-13.158
		c0-6.396-5.186-11.581-11.581-11.581s-11.581,5.185-11.581,11.581v1.577H291.83v-83.015c0-6.396-5.186-11.581-11.581-11.581
		s-11.581,5.185-11.581,11.581v94.596C268.669,391.82,273.854,397.005,280.249,397.005z"/>
	<path style="fill:#FFFFFF;" d="M361.14,397.005h47.298c6.395,0,11.581-5.185,11.581-11.581v-13.158
		c0-6.396-5.186-11.581-11.581-11.581s-11.581,5.185-11.581,11.581v1.577h-24.137v-24.137h15.101
		c6.395,0,11.581-5.185,11.581-11.581s-5.186-11.581-11.581-11.581h-15.101v-24.136h24.137v4.183
		c0,6.396,5.186,11.581,11.581,11.581s11.581-5.185,11.581-11.581v-15.763c0-6.396-5.186-11.581-11.581-11.581H361.14
		c-6.395,0-11.581,5.185-11.581,11.581v94.596C349.56,391.82,354.744,397.005,361.14,397.005z"/>
	<path style="fill:#FFFFFF;" d="M189.702,396.393c6.395,0,11.581-5.185,11.581-11.581v-19.945h23.524v19.945
		c0,6.396,5.186,11.581,11.581,11.581s11.581-5.185,11.581-11.581v-70.028c0-19.257-15.666-34.923-34.923-34.923
		c-19.256,0-34.922,15.666-34.922,34.923v70.028C178.121,391.209,183.306,396.393,189.702,396.393z M213.044,303.022
		c6.486,0,11.762,5.276,11.762,11.762v26.922h-23.524v-26.922C201.283,308.299,206.557,303.022,213.044,303.022z"/>
</g>
<path style="fill:#333333;" d="M500.419,185.185h-50.872L299.228,95.153c1.131-3.941,1.751-8.095,1.751-12.395
	c0-24.802-20.178-44.98-44.979-44.98c-24.802,0-44.98,20.178-44.98,44.98c0,4.3,0.62,8.455,1.751,12.396L62.455,185.185H11.581
	C5.186,185.185,0,190.37,0,196.766v39.885c0,6.396,5.186,11.581,11.581,11.581h10.721l30.062,216.006
	c0.797,5.724,5.691,9.985,11.469,9.985h384.335c5.779,0,10.674-4.26,11.469-9.985l30.062-216.006h10.72
	c6.395,0,11.581-5.185,11.581-11.581v-39.885C512,190.37,506.815,185.185,500.419,185.185z M256.001,60.941
	c12.031,0,21.818,9.788,21.818,21.819s-9.787,21.818-21.818,21.818c-12.031,0-21.819-9.788-21.819-21.818
	S243.97,60.941,256.001,60.941z M224.694,115.012c8.104,7.868,19.145,12.727,31.306,12.727s23.202-4.859,31.306-12.727
	l117.165,70.175H107.531L224.694,115.012z M23.161,208.346h465.678v16.723H23.161V208.346z M438.087,451.06H73.914l-28.229-202.83
	h420.632L438.087,451.06z"/>
<g>
</g>
<g>
</g>
<g>
</g>
<g>
</g>
<g>
</g>
<g>
</g>
<g>
</g>
<g>
</g>
<g>
</g>
<g>
</g>
<g>
</g>
<g>
</g>
<g>
</g>
<g>
</g>
<g>
</g>
</svg>
