<?xml version="1.0" encoding="iso-8859-1"?>
<!-- Generator: Adobe Illustrator 19.0.0, SVG Export Plug-In . SVG Version: 6.00 Build 0)  -->
<svg version="1.1" id="Capa_1" xmlns="http://www.w3.org/2000/svg" xmlns:xlink="http://www.w3.org/1999/xlink" x="0px" y="0px"
	 viewBox="0 0 512 512" style="enable-background:new 0 0 512 512;" xml:space="preserve">
<g>
	<path style="fill:#5C4346;" d="M453.108,125.934L426.74,85.523l-40.443-26.339c-5.827-5.822-5.827-15.263,0-21.084l0,0
		c5.825-5.82,15.268-5.82,21.093,0l26.483,40.296l40.328,26.454c5.827,5.822,5.827,15.263,0,21.084l0,0
		C468.376,131.753,458.933,131.753,453.108,125.934z"/>
	<path style="fill:#5C4346;" d="M419.05,159.961l-27.068-39.702l-39.743-27.048c-5.827-5.822-5.827-15.263,0-21.084l0,0
		c5.825-5.82,15.268-5.82,21.093,0l27.588,39.2l39.223,27.549c5.827,5.822,5.827,15.263,0,21.084l0,0
		C434.317,165.78,424.875,165.78,419.05,159.961z"/>
</g>
<rect x="-26.298" y="261.049" transform="matrix(0.7071 0.7071 -0.7071 0.7071 267.7696 -100.3553)" style="fill:#FFDEA9;" width="562.645" height="24"/>
<g>
	<polygon style="fill:#A66856;" points="102.178,103.23 120.373,84.655 92.283,56.566 73.898,74.951 	"/>
	<path style="fill:#A66856;" d="M48.415,460.911c-69.682-71.29-46.889-183.446,42.063-203.964l0.009-0.009
		c24.289,12.132,50.822,11.04,66.891-5.015c11.926-11.915,15.605-29.604,11.726-47.87c5.421-8.78,4.615-10.301,19.324-26.401
		c78.463-85.923,238.095,67.855,144.177,147.919c-16.36,13.941-14.621,11.166-24.345,17.386
		c-18.335-3.928-36.11-0.269-48.072,11.681c-16.069,16.055-17.171,42.554-5.028,66.821
		C234.544,510.814,120.24,534.377,48.415,460.911z"/>
</g>
<path style="fill:#8F5040;" d="M303.399,171.646c35.511,37.754,49.57,93.891,4.04,132.705
	c-14.149,12.057-14.76,11.611-20.957,15.293c-2.197,1.306-4.781,1.761-7.306,1.367c-16.926-2.638-33.046,1.31-44.153,12.406
	c-15.317,15.303-17.035,40.096-6.646,63.4c1.044,2.341,1.279,4.968,0.615,7.444c-20.587,76.754-111.916,102.338-181.605,55.567
	c0.345,0.36,0.678,0.725,1.027,1.082c71.826,73.466,186.13,49.903,206.745-39.45c-12.143-24.267-11.041-50.767,5.028-66.821
	c11.961-11.951,29.737-15.609,48.072-11.681c9.724-6.22,7.985-3.444,24.345-17.386C387.804,278.516,355.415,205.997,303.399,171.646
	z"/>
<path style="fill:#595959;" d="M99.296,495.154c-18.019-7.134-35.436-18.442-50.882-34.242
	c-55.872-57.16-52.293-140.611-2.811-182.007c0.097,0.043,0.167,0.044,0.193,0.017c0,0,32.958,12.38,35.648,53.483
	s12.092,55.533,37.028,84.973C131.966,433.305,119.475,458.335,99.296,495.154z"/>
<g>
	<path style="fill:#735458;" d="M66.769,445.171L66.769,445.171c-3.296-3.294-3.555-8.548-0.6-12.15l60.296-73.492l26.001,25.985
		l-73.54,60.258C75.323,448.724,70.065,448.465,66.769,445.171z"/>
	<polygon style="fill:#735458;" points="235.186,307.193 204.872,276.907 417.615,64.35 447.93,94.636 	"/>
</g>
<path style="fill:#8F5040;" d="M404.237,144.216l-36.236-36.201c-1.666-1.664-0.996-4.943,1.447-7.078l69.728-60.955
	c2.145-1.875,4.905-2.192,6.368-0.73l27.24,27.214c1.457,1.455,1.15,4.197-0.71,6.338l-60.732,69.942
	C409.207,145.205,405.909,145.887,404.237,144.216z"/>
<path style="fill:#A66856;" d="M503.77,47.852l-40.81,51.94c-1.44,1.82-4.43,1.66-6.44-0.35l-20.84-20.82l-22.87-22.85
	c-2.01-2.01-2.18-4.99-0.37-6.43l51.66-41.1c1.59-1.26,4.16-0.88,5.92,0.88l12.14,12.14l20.71,20.69
	C504.63,43.712,505.02,46.262,503.77,47.852z"/>
<path style="fill:#8F5040;" d="M503.77,47.852l-40.81,51.94c-1.44,1.82-4.43,1.66-6.44-0.35l-20.84-20.82h0.02
	c2.02,2.02,5.01,2.18,6.44,0.35l40.81-51.94c1.23-1.55,0.87-4.02-0.79-5.77l20.71,20.69C504.63,43.712,505.02,46.262,503.77,47.852z
	"/>
<path d="M175.565,285.035c-0.848-0.534-5.429-3.131-12.338-1.762c-7.665,1.523-15.116,7.254-22.147,17.035
	c-5.109,7.107-10.55,10.861-15.74,10.861c-0.022,0-0.046,0-0.068,0c-3.881-0.025-6.549-2.121-7.045-2.824
	c-2.094-3.574-6.69-4.772-10.263-2.68c-3.574,2.094-4.774,6.689-2.68,10.263c2.708,4.622,9.764,9.789,18.857,10.213
	c0.395,0.019,0.799,0.028,1.213,0.028c7.396,0,17.87-3.146,27.905-17.107c7.642-10.63,13.143-11.619,14.726-11.092
	c3.446,1.876,7.8,0.772,9.922-2.591C180.118,291.876,179.069,287.245,175.565,285.035z"/>
<path d="M202.997,358.733c-14.759,10.589-17.444,21.669-17.097,29.099c0.424,9.091,5.597,16.143,10.224,18.849
	c1.195,0.699,2.507,1.032,3.802,1.032c2.58,0,5.095-1.321,6.487-3.702c2.091-3.576,0.917-8.151-2.659-10.242
	c-0.761-0.531-2.857-3.191-2.882-7.064c-0.034-5.201,3.725-10.659,10.869-15.784c25.213-18.09,15.705-33.81,15.288-34.47
	c-2.212-3.501-6.843-4.547-10.346-2.335c-3.362,2.124-4.461,6.479-2.585,9.922C214.624,345.617,213.628,351.106,202.997,358.733z"/>
<path d="M168.97,319.857c-2.929-2.929-7.678-2.929-10.607,0s-2.929,7.678,0,10.606l24.171,24.17
	c1.464,1.464,3.384,2.197,5.303,2.197s3.839-0.732,5.303-2.197c2.929-2.929,2.929-7.678,0-10.606L168.97,319.857z"/>
<path d="M508.183,36.643L475.327,3.816c-4.476-4.47-11.306-5.088-15.889-1.443L415.74,37.136l-2.079-3.16
	c-0.279-0.425-0.602-0.821-0.962-1.181c-4.227-4.229-9.858-6.558-15.854-6.558c-5.988,0-11.616,2.329-15.839,6.552
	c-4.239,4.232-6.573,9.86-6.574,15.847c0,5.988,2.335,11.616,6.574,15.848c0.367,0.367,0.772,0.694,1.206,0.977l9.414,6.13
	l-5.873,5.135l-6.285-8.927c-0.248-0.352-0.525-0.682-0.829-0.986c-4.229-4.228-9.859-6.557-15.854-6.557
	c-5.988,0-11.616,2.329-15.844,6.557c-4.236,4.236-6.569,9.866-6.569,15.852c0,5.989,2.334,11.617,6.573,15.849
	c0.331,0.33,0.692,0.629,1.079,0.892l11.699,7.963c0.173,1.136,0.513,2.217,1.012,3.215l0,0c-0.027,0.027,0.027-0.027,0,0
	c-0.019,0.02,0.019-0.02,0,0l-54.208,54.157c-19.164-12.407-40.158-19.442-59.733-19.894c-16.037-0.377-30.976,3.542-44.161,11.454
	l-28.268-28.267c-2.929-2.929-7.678-2.929-10.607,0c-2.929,2.929-2.929,7.678,0,10.606l26.619,26.618
	c-2.588,2.263-5.087,4.702-7.484,7.327c-0.124,0.136-0.232,0.257-0.355,0.391l-69.81-69.807l7.698-7.859l20.707,20.706
	c1.464,1.464,3.384,2.197,5.303,2.197s3.839-0.732,5.303-2.197c2.929-2.929,2.929-7.678,0-10.606l-79.18-79.176
	c-2.929-2.929-7.678-2.929-10.607,0c-2.929,2.929-2.929,7.678,0,10.606l19.721,19.72l-7.779,7.778l-4.005-4.005
	c-2.929-2.929-7.678-2.929-10.607,0l-16.97,16.969c-2.929,2.929-2.929,7.678,0,10.606l119.852,119.848
	c2.746,15.571-0.869,29.64-10.088,38.852c-1.474,1.473-3.088,2.823-4.797,4.012c-3.4,2.365-4.24,7.039-1.874,10.439
	c1.457,2.095,3.791,3.218,6.163,3.218c1.478,0,2.971-0.436,4.276-1.344c2.436-1.694,4.735-3.617,6.835-5.715
	c12.693-12.682,17.84-31.421,14.325-51.776c0.6-1.029,1.122-1.957,1.607-2.82c2.188-3.892,3.798-6.743,9.848-13.744
	c0.096-0.108,0.193-0.216,0.281-0.328c1.466-1.689,3.185-3.614,5.226-5.848c3.66-4.008,7.546-7.486,11.642-10.446
	c0.163-0.102,0.321-0.214,0.478-0.33c11.776-8.361,25.291-12.427,40.361-12.083c15.928,0.367,33.127,5.919,49.204,15.762
	l-96.083,95.993c-1.408,1.407-2.199,3.316-2.199,5.307c0,1.99,0.792,3.899,2.2,5.306l30.321,30.279
	c1.464,1.462,3.382,2.193,5.3,2.193c1.919,0,3.837-0.731,5.301-2.194l52.607-52.561c0.236-0.188,0.465-0.386,0.682-0.606
	c0.194-0.197,0.372-0.403,0.54-0.614l27.704-27.68c0.202-0.166,0.397-0.343,0.584-0.534c0.142-0.145,0.272-0.297,0.4-0.45
	l14.218-14.206c29.887,44.982,15.254,82.925-9.489,104.016c-11.277,9.609-13.347,10.787-17.106,12.928
	c-1.057,0.602-2.286,1.302-3.84,2.247c-20.407-3.545-39.184,1.592-51.901,14.297c-17.367,17.344-20.266,45.742-7.652,72.961
	c-8.966,35.059-34.06,60.701-69.206,70.566c-22.14,6.214-45.65,5.319-67.918-1.871c16.23-29.866,28.699-55.851,16.75-74.808
	l30.353-24.87c1.639-1.343,2.633-3.316,2.737-5.432s-0.69-4.177-2.189-5.675l-26.002-25.984c-1.498-1.496-3.56-2.296-5.672-2.186
	c-2.114,0.104-4.086,1.097-5.429,2.733l-20.447,24.921c-6.782-12.926-9.909-26.671-11.297-47.78
	c-1.951-29.809-18.13-46.095-29.448-53.928c8.998-5.85,19.127-10.291,30.193-13.116c10.059,4.644,20.63,7.3,30.737,7.705
	c4.152,0.152,7.628-3.055,7.795-7.193c0.166-4.139-3.055-7.629-7.194-7.795c-8.852-0.355-18.246-2.897-27.165-7.351
	c-1.667-0.832-3.534-0.992-5.254-0.54c-30.046,6.98-54.35,24.131-69.919,48.596c-0.427,0.666-0.851,1.335-1.264,2.011
	c-0.063,0.104-0.125,0.21-0.188,0.315c-8.188,13.5-13.61,28.855-15.931,45.379c-0.041,0.285-0.076,0.571-0.115,0.856
	c-0.125,0.931-0.239,1.866-0.344,2.804c-0.066,0.58-0.134,1.16-0.192,1.741c-0.018,0.18-0.03,0.362-0.047,0.543
	c-0.169,1.775-0.298,3.553-0.393,5.333c-0.009,0.161-0.022,0.321-0.03,0.482c-0.006,0.111-0.007,0.222-0.012,0.333
	c-0.05,1.054-0.089,2.108-0.114,3.164c-0.004,0.18-0.005,0.36-0.009,0.539c-0.066,3.475,0.002,6.954,0.211,10.432
	c0.004,0.067,0.006,0.135,0.011,0.202c0.064,1.043,0.145,2.085,0.234,3.127c0.024,0.287,0.048,0.574,0.075,0.861
	c0.092,1.007,0.194,2.013,0.308,3.019c0.03,0.263,0.064,0.526,0.095,0.79c0.401,3.345,0.925,6.682,1.575,10.005
	c0.026,0.136,0.05,0.272,0.077,0.407c0.197,0.993,0.411,1.985,0.63,2.976c0.071,0.322,0.142,0.645,0.216,0.967
	c0.221,0.968,0.452,1.935,0.694,2.9c0.071,0.283,0.146,0.565,0.219,0.847c0.842,3.267,1.801,6.514,2.88,9.736
	c0.046,0.136,0.088,0.273,0.134,0.408c0.33,0.975,0.675,1.947,1.027,2.917c0.111,0.305,0.221,0.611,0.334,0.916
	c0.351,0.95,0.711,1.897,1.082,2.841c0.102,0.26,0.209,0.518,0.312,0.778c1.238,3.094,2.586,6.157,4.044,9.185
	c0.111,0.231,0.219,0.463,0.331,0.693c0.432,0.885,0.877,1.766,1.327,2.645c0.185,0.361,0.371,0.722,0.559,1.082
	c0.444,0.85,0.894,1.698,1.356,2.541c0.19,0.348,0.387,0.694,0.58,1.04c1.492,2.678,3.072,5.321,4.739,7.926
	c0.309,0.484,0.617,0.969,0.932,1.45c0.441,0.673,0.891,1.342,1.343,2.009c0.376,0.555,0.756,1.107,1.14,1.657
	c0.43,0.616,0.86,1.232,1.299,1.843c0.484,0.673,0.98,1.34,1.475,2.007c0.364,0.489,0.719,0.982,1.09,1.468
	c0.84,1.103,1.699,2.194,2.571,3.278c0.342,0.424,0.693,0.843,1.039,1.264c0.614,0.747,1.234,1.492,1.863,2.229
	c0.366,0.428,0.735,0.855,1.106,1.28c0.667,0.765,1.343,1.523,2.026,2.277c0.328,0.361,0.652,0.725,0.984,1.084
	c1.017,1.101,2.046,2.193,3.098,3.269c0.001,0.001,0.002,0.002,0.003,0.004l0,0l0,0l0.001,0.001c0.925,0.946,1.86,1.878,2.804,2.797
	c0.896,0.874,1.801,1.732,2.711,2.581c0.009,0.008,0.017,0.016,0.026,0.025c14.325,13.36,30.422,23.63,47.953,30.566
	c0.322,0.128,0.649,0.223,0.978,0.303c16.205,6.301,33.187,9.586,50.107,9.585c11.607-0.001,23.191-1.543,34.464-4.707
	c19.538-5.484,37.109-15.714,50.815-29.584c14.694-14.869,24.642-33.231,29.567-54.573c0.393-1.699,0.181-3.482-0.6-5.042
	c-11.053-22.093-9.631-44.922,3.623-58.158c9.199-9.19,23.214-12.811,38.743-10.116l40.754,40.753
	c1.465,1.464,3.385,2.197,5.304,2.197c1.919,0,3.839-0.732,5.304-2.197c2.929-2.929,2.929-7.678,0-10.606l-35.398-35.397
	c2.137-1.276,4.232-2.676,7.496-5.229L451.84,463.481l-6.364,6.363l-67.26-67.258c-2.929-2.928-7.677-2.929-10.608,0
	c-2.929,2.929-2.929,7.678,0,10.606l72.564,72.561c1.465,1.465,3.384,2.197,5.304,2.197c1.919,0,3.839-0.732,5.303-2.197
	l16.971-16.969c1.407-1.406,2.197-3.314,2.197-5.303c0-0.441-0.045-0.876-0.121-1.304l0.615-2.176
	c4.825-16.983-2.594-38.494-18.901-54.802l-95.291-95.287c8.471-13.35,12.773-28.341,12.594-44.35
	c-0.223-19.918-7.594-41.177-20.838-60.491l3.113-3.11c0.107-0.097,0.217-0.189,0.319-0.293c0.075-0.076,0.139-0.158,0.21-0.236
	l50.01-49.967c0.008-0.008-21.4,21.383-21.392,21.375c0.006-0.006,21.386-21.369,21.392-21.375l0,0
	c1.003,0.504,2.089,0.845,3.229,1.019l7.971,11.695c0.264,0.387,0.563,0.749,0.894,1.08c4.229,4.228,9.859,6.557,15.854,6.557
	c5.99,0,11.617-2.329,15.839-6.552c4.239-4.232,6.573-9.86,6.573-15.849c0-5.986-2.332-11.616-6.569-15.852
	c-0.307-0.306-0.639-0.585-0.992-0.833l-9.001-6.323l5.148-5.929l6.23,9.548c0.283,0.434,0.611,0.837,0.978,1.204
	c4.234,4.235,9.864,6.567,15.854,6.567c5.982,0,11.609-2.332,15.839-6.562c4.239-4.232,6.574-9.86,6.574-15.848
	c-0.001-5.988-2.335-11.616-6.574-15.847c-0.36-0.36-0.757-0.682-1.184-0.962l-3.213-2.109l34.563-43.987
	C513.274,47.898,512.633,41.09,508.183,36.643z M92.281,67.167l17.538,17.537l-7.698,7.859L84.503,74.945L92.281,67.167z
	 M64.587,76.243L64.587,76.243L64.587,76.243l108.139,108.135c-2.419,3.079-3.951,5.371-5.231,7.496L58.224,82.606L64.587,76.243z
	 M127.015,370.672l14.29,14.281l-67.133,55.006c-0.627,0.514-1.531,0.468-2.103-0.103l0,0c-0.569-0.568-0.613-1.466-0.103-2.087
	l33.059-40.293c0.026-0.032,0.052-0.063,0.078-0.095L127.015,370.672z M73.954,332.884c1.712,26.051,6.166,42.765,16.062,59.235
	l-29.647,36.134c-5.427,6.615-4.955,16.164,1.097,22.211c3.231,3.229,7.46,4.868,11.708,4.868c3.705,0,7.424-1.247,10.505-3.771
	l31.353-25.689c5.275,11.921-3.981,31.88-19.024,59.637c-13.869-6.324-26.995-15.171-38.685-26.345
	c-0.185-0.177-0.37-0.352-0.554-0.53c-1.01-0.975-2.011-1.964-2.998-2.973c-0.947-0.969-1.873-1.951-2.787-2.941
	c-0.299-0.323-0.591-0.65-0.886-0.976c-0.613-0.676-1.219-1.355-1.817-2.04c-0.336-0.385-0.67-0.77-1.001-1.158
	c-0.561-0.656-1.112-1.318-1.659-1.983c-0.317-0.384-0.637-0.766-0.949-1.154c-0.754-0.936-1.495-1.878-2.222-2.828
	c-0.364-0.475-0.716-0.957-1.073-1.436c-0.443-0.595-0.886-1.19-1.319-1.79c-0.401-0.556-0.793-1.116-1.185-1.677
	c-0.338-0.484-0.674-0.969-1.005-1.456c-0.414-0.608-0.825-1.218-1.228-1.832c-0.273-0.416-0.54-0.835-0.808-1.253
	c-1.539-2.398-3-4.833-4.377-7.302c-0.137-0.246-0.278-0.491-0.414-0.738c-0.438-0.796-0.864-1.597-1.284-2.399
	c-0.143-0.272-0.284-0.545-0.425-0.817c-0.429-0.833-0.852-1.667-1.262-2.506c-0.069-0.142-0.136-0.285-0.205-0.427
	c-1.397-2.881-2.687-5.799-3.864-8.749c-0.025-0.063-0.052-0.126-0.077-0.19c-0.377-0.95-0.741-1.904-1.095-2.861
	c-0.053-0.143-0.106-0.286-0.158-0.43c-1.874-5.116-3.418-10.317-4.615-15.572c-0.014-0.063-0.029-0.126-0.043-0.189
	c-2.419-10.692-3.413-21.604-2.869-32.461c0.12-2.391,0.316-4.757,0.576-7.099c0.081-0.71,0.164-1.419,0.258-2.127
	c0.041-0.317,0.079-0.636,0.123-0.953c0.746-5.279,1.865-10.51,3.374-15.659c4.077-13.909,10.681-26.212,19.39-36.52
	c0.114-0.135,0.23-0.267,0.344-0.401c0.498-0.582,1.003-1.157,1.514-1.727c0.189-0.21,0.378-0.421,0.569-0.629
	c0.494-0.54,0.995-1.073,1.501-1.601c0.161-0.168,0.319-0.339,0.481-0.505c0.651-0.669,1.312-1.329,1.982-1.978
	c0.163-0.158,0.331-0.313,0.495-0.47c0.374-0.357,0.754-0.708,1.134-1.059C54.673,292.142,72.128,304.984,73.954,332.884z
	 M440.933,415.804c9.494,9.494,15.249,21.225,15.891,31.446L339.267,329.7c2.795-2.491,5.395-5.079,7.805-7.752L440.933,415.804z
	 M406.973,136.33l-31.089-31.053l33.135-28.967c0.022-0.02,0.045-0.039,0.067-0.059l7.266-6.352l25.864,25.842L406.973,136.33z
	 M374.881,157.014l-19.844-19.534l15.93-15.915l19.7,19.677L374.881,157.014z M346.04,185.829l-19.845-19.535l18.229-18.212
	l19.845,19.534L346.04,185.829z M317.2,214.644l-19.846-19.536l18.229-18.212l19.845,19.535L317.2,214.644z M288.36,243.459
	l-19.846-19.537l18.229-18.212l19.846,19.536L288.36,243.459z M391.164,53.392c-1.121-1.331-1.732-2.996-1.732-4.755
	c0.001-1.976,0.772-3.834,2.177-5.236c1.395-1.395,3.254-2.163,5.236-2.163c1.774,0,3.447,0.611,4.777,1.732l3.026,4.599
	c-0.531,1.206-0.863,2.51-0.94,3.865c-0.151,2.695,0.639,5.387,2.195,7.676l-2.543,2.224L391.164,53.392z M355.372,82.665
	c0-1.979,0.772-3.842,2.176-5.246c1.395-1.395,3.255-2.164,5.236-2.164c1.807,0,3.511,0.635,4.854,1.798l6.758,9.6l-8.076,7.06
	l-9.174-6.244C355.997,86.132,355.372,84.447,355.372,82.665z M235.19,296.582l-19.706-19.679l42.418-42.378l19.847,19.537
	L235.19,296.582z M435.211,144.565c1.169,1.349,1.807,3.051,1.807,4.85c0,1.977-0.771,3.835-2.176,5.239
	c-1.395,1.394-3.254,2.162-5.236,2.162c-1.791,0-3.481-0.624-4.818-1.767l-6.245-9.163l7.027-8.094L435.211,144.565z
	 M468.904,120.622c-1.402,1.401-3.262,2.173-5.237,2.173c-1.765,0-3.435-0.611-4.769-1.734l-8.067-12.363l2.158-2.485
	c2.145,1.511,4.657,2.342,7.203,2.342c0.234,0,0.47-0.007,0.705-0.021c1.344-0.081,2.636-0.412,3.83-0.939l4.612,3.027
	c1.126,1.332,1.739,3,1.74,4.763C471.08,117.362,470.308,119.221,468.904,120.622z M459.609,91.915L420.32,52.66l46.024-36.614
	l29.624,29.597L459.609,91.915z"/>
<g>
</g>
<g>
</g>
<g>
</g>
<g>
</g>
<g>
</g>
<g>
</g>
<g>
</g>
<g>
</g>
<g>
</g>
<g>
</g>
<g>
</g>
<g>
</g>
<g>
</g>
<g>
</g>
<g>
</g>
</svg>
